<svg width="499" height="500" viewBox="0 0 499 500" fill="none" xmlns="http://www.w3.org/2000/svg">
<g opacity="0.15">
<path fill-rule="evenodd" clip-rule="evenodd" d="M238.131 178.212C236.568 200.56 217.187 217.417 194.851 215.855C172.515 214.293 155.668 194.903 157.231 172.554C158.794 150.199 178.175 133.349 200.511 134.911C222.847 136.473 239.694 155.856 238.131 178.212Z" stroke="white"/>
<path fill-rule="evenodd" clip-rule="evenodd" d="M334.09 347.971C333.041 362.964 320.047 374.268 305.064 373.22C290.081 372.173 278.779 359.17 279.828 344.177C280.876 329.184 293.878 317.881 308.861 318.928C323.843 319.976 335.138 332.978 334.09 347.971Z" stroke="white"/>
<path fill-rule="evenodd" clip-rule="evenodd" d="M183.765 276.73C182.716 291.723 169.72 303.027 154.735 301.979C139.75 300.931 128.454 287.929 129.502 272.936C130.551 257.943 143.547 246.639 158.532 247.687C173.517 248.735 184.813 261.737 183.765 276.73Z" stroke="white"/>
<path fill-rule="evenodd" clip-rule="evenodd" d="M284.642 283.653C283.594 298.646 270.592 309.95 255.609 308.902C240.626 307.854 229.332 294.852 230.38 279.859C231.428 264.866 244.423 253.562 259.406 254.61C274.389 255.657 285.691 268.66 284.642 283.653Z" stroke="white"/>
<path fill-rule="evenodd" clip-rule="evenodd" d="M378.614 276.24C377.833 287.411 368.147 295.843 356.974 295.061C345.802 294.28 337.383 284.583 338.164 273.411C338.945 262.24 348.632 253.808 359.804 254.589C370.977 255.37 379.396 265.068 378.614 276.24Z" stroke="white"/>
<path fill-rule="evenodd" clip-rule="evenodd" d="M251.047 375.701C250.532 383.062 244.151 388.614 236.796 388.099C229.44 387.585 223.894 381.2 224.409 373.839C224.924 366.477 231.304 360.933 238.66 361.447C246.015 361.961 251.562 368.34 251.047 375.701Z" stroke="white"/>
<path fill-rule="evenodd" clip-rule="evenodd" d="M324.24 191.645C323.725 199.006 317.343 204.557 309.985 204.042C302.628 203.528 297.087 197.143 297.602 189.782C298.117 182.421 304.492 176.876 311.849 177.39C319.206 177.904 324.754 184.283 324.24 191.645Z" stroke="white"/>
<path fill-rule="evenodd" clip-rule="evenodd" d="M480.379 259.823C477.563 251.935 471.624 249.356 465.172 251.635C461.346 252.987 458.028 254.048 458.028 254.048C452.073 256.057 445.559 258.594 439.181 258.148L437.339 258.019C430.932 257.571 426.032 252.283 425.871 245.866C425.447 228.363 422.429 211.012 416.934 194.411C414.98 188.508 417.594 182.067 423.185 179.342L425.582 178.166C431.331 175.366 438.327 175.274 444.595 174.906C444.595 174.906 448.069 174.641 452.117 174.459C458.961 174.16 463.495 169.532 463.158 161.171C463.022 157.82 462.094 154.378 460.557 151.235C459.021 148.085 456.883 145.234 454.334 143.066C447.948 137.651 441.524 138.379 437.066 143.587C434.434 146.671 432.083 149.251 432.083 149.251C427.935 153.965 423.561 159.426 417.805 162.233L416.196 163.021C410.418 165.835 403.519 163.696 400.179 158.212C391.24 143.534 380.033 130.026 366.699 118.207C362.03 114.075 361.075 107.175 364.55 102.014L366.071 99.775C369.644 94.4617 375.657 90.8878 380.907 87.4348C380.907 87.4348 383.781 85.4643 387.2 83.285C392.974 79.6 394.596 73.3224 390.118 66.2551C388.328 63.421 385.803 60.906 382.899 58.9453C380.002 56.9925 376.725 55.5868 373.427 54.9931C365.2 53.4882 359.987 57.3432 358.732 64.0749C357.996 68.0614 357.257 71.4667 357.257 71.4667C356.013 77.6327 354.949 84.5448 351.377 89.8581L350.324 91.4113C346.736 96.7453 339.7 98.3448 334.065 95.2637C318.406 86.6811 301.912 80.6981 285.118 77.2433C279.007 75.9881 274.73 70.5036 275.165 64.2883L275.349 61.6576C275.795 55.2688 279.213 49.1675 282.03 43.5473C282.03 43.5473 283.542 40.4066 285.412 36.8045C288.573 30.729 286.833 24.4777 279.425 20.5972C276.463 19.0393 273.022 18.1232 269.526 17.8787C266.037 17.6347 262.494 18.0624 259.344 19.193C251.468 22.0048 248.882 27.9535 251.16 34.4094C252.518 38.2373 253.571 41.5572 253.571 41.5572C255.578 47.5149 258.113 54.0323 257.666 60.4211L257.538 62.2568C257.09 68.6673 251.811 73.5707 245.391 73.7246C227.904 74.1576 210.556 77.1713 193.97 82.6785C188.07 84.6335 181.633 82.0192 178.903 76.425L177.735 74.0266C174.93 68.2673 174.837 61.2816 174.471 55.0029C174.471 55.0029 174.206 51.5274 174.032 47.4701C173.734 40.6297 169.108 36.0868 160.744 36.4315C157.403 36.5683 153.963 37.497 150.814 39.0343C147.673 40.5649 144.823 42.7042 142.648 45.261C137.237 51.644 137.97 58.0862 143.175 62.5318C146.257 65.1729 148.83 67.5171 148.83 67.5171C153.54 71.6738 158.997 76.0498 161.803 81.8018L162.598 83.4188C165.409 89.2002 163.265 96.0949 157.782 99.4445C143.119 108.391 129.611 119.603 117.797 132.946C113.675 137.611 106.77 138.574 101.613 135.09L99.3745 133.576C94.0649 129.994 90.5002 123.986 87.0422 118.733C87.0422 118.733 85.073 115.857 82.8951 112.437C79.2198 106.66 72.9457 105.038 65.8748 109.518C63.042 111.31 60.5282 113.836 58.5761 116.735C56.6236 119.641 55.2185 122.92 54.6176 126.219C53.1201 134.452 56.9654 139.666 63.6939 140.914C67.6849 141.658 71.0882 142.397 71.0882 142.397C77.2508 143.641 84.1596 144.698 89.4619 148.279L91.0215 149.332C96.345 152.922 97.9504 159.962 94.856 165.599C86.2841 181.268 80.3032 197.771 76.8562 214.576C75.5944 220.682 70.1198 224.962 63.9007 224.527L61.2714 224.343C54.8861 223.897 48.7885 220.478 43.1715 217.66C43.1715 217.66 40.0322 216.155 36.4322 214.283C30.3602 211.121 24.1199 212.856 20.2337 220.268C18.6759 223.238 17.7601 226.682 17.5155 230.18C17.2714 233.671 17.699 237.208 18.8283 240.367C21.6451 248.247 27.5832 250.834 34.0362 248.547C37.8616 247.195 41.1798 246.142 41.1798 246.142C47.1344 244.133 53.6485 241.596 60.0338 242.042L61.8757 242.171C68.2754 242.619 73.1758 247.9 73.3296 254.316C73.7678 271.82 76.779 289.171 82.2742 305.772C84.2349 311.676 81.6143 318.116 76.0229 320.848L73.6329 322.017C67.8766 324.824 60.888 324.909 54.6194 325.284C54.6194 325.284 51.1386 325.549 47.0834 325.723C40.2463 326.03 35.7132 330.651 36.0498 339.019C36.1935 342.363 37.1214 345.805 38.651 348.947C40.1872 352.098 42.3179 354.948 44.8736 357.117C51.2523 362.538 57.691 361.804 62.1418 356.596C64.7745 353.512 67.1176 350.938 67.1176 350.938C71.2729 346.217 75.6464 340.764 81.3955 337.956L83.0184 337.169C88.7974 334.349 95.6815 336.486 99.0283 341.978C107.968 356.649 119.174 370.163 132.517 381.976C137.178 386.107 138.133 393.008 134.651 398.168L133.143 400.415C129.557 405.72 123.551 409.295 118.308 412.748C118.308 412.748 115.427 414.718 112.008 416.898C106.234 420.583 104.619 426.861 109.089 433.935C110.881 436.762 113.405 439.277 116.309 441.237C119.213 443.198 122.491 444.596 125.781 445.19C134.016 446.695 139.221 442.839 140.468 436.107C141.212 432.121 141.958 428.716 141.958 428.716C143.195 422.55 144.252 415.637 147.838 410.332L148.891 408.772C152.479 403.445 159.509 401.838 165.143 404.926C180.802 413.509 197.296 419.485 214.098 422.94C220.194 424.194 224.478 429.679 224.043 435.902L223.859 438.532C223.412 444.921 219.995 451.022 217.178 456.643C217.178 456.643 215.666 459.783 213.795 463.385C210.634 469.461 212.368 475.704 219.783 479.593C222.751 481.151 226.194 482.06 229.675 482.303C233.171 482.548 236.707 482.127 239.863 480.997C247.747 478.178 250.333 472.237 248.048 465.781C246.69 461.953 245.637 458.633 245.637 458.633C243.629 452.675 241.094 446.158 241.541 439.769L241.67 437.926C242.118 431.523 247.404 426.612 253.817 426.458C271.304 426.025 288.645 423.011 305.238 417.504C311.145 415.55 317.582 418.171 320.305 423.758L321.472 426.163C324.278 431.915 324.363 438.908 324.737 445.18C324.737 445.18 325.002 448.662 325.183 452.713C325.482 459.553 330.1 464.096 338.464 463.751C341.805 463.622 345.245 462.686 348.394 461.156C351.535 459.618 354.385 457.478 356.553 454.921C361.971 448.539 361.245 442.104 356.04 437.651C352.958 435.017 350.378 432.666 350.378 432.666C345.66 428.516 340.21 424.14 337.405 418.381L336.618 416.764C333.799 410.99 335.936 404.087 341.425 400.745C356.089 391.799 369.597 380.587 381.404 367.236C385.533 362.571 392.43 361.616 397.588 365.092L399.834 366.607C405.136 370.188 408.708 376.197 412.166 381.45C412.166 381.45 414.127 384.332 416.313 387.746C419.995 393.53 426.262 395.145 433.333 390.665C436.159 388.872 438.68 386.347 440.632 383.448C442.592 380.542 443.99 377.262 444.59 373.971C446.095 365.731 442.242 360.524 435.507 359.268C431.53 358.533 428.12 357.786 428.12 357.786C421.964 356.549 415.056 355.485 409.746 351.904L408.194 350.851C402.863 347.261 401.258 340.22 404.344 334.59C412.923 318.922 418.898 302.411 422.352 285.607C423.606 279.5 429.095 275.221 435.307 275.656L437.944 275.84C444.322 276.286 450.42 279.705 456.037 282.523C456.037 282.523 459.175 284.035 462.775 285.906C468.848 289.062 475.088 287.327 478.974 279.915C480.532 276.944 481.441 273.5 481.685 270.009C481.929 266.519 481.509 262.974 480.379 259.823Z" stroke="white"/>
</g>
<path fill-rule="evenodd" clip-rule="evenodd" d="M343.95 50.9025C343.219 50.5587 342.473 50.2507 341.711 49.9786C340.954 49.7065 340.183 49.4703 339.405 49.2719C339.064 49.185 338.719 49.1075 338.377 49.0357C338.303 49.0187 338.229 49.0036 338.153 48.9885C337.812 48.9205 337.468 48.8562 337.123 48.8015C337.095 48.7958 337.064 48.792 337.036 48.7882C336.697 48.7372 336.358 48.6919 336.021 48.6541C335.975 48.6484 335.934 48.6427 335.888 48.6371C335.525 48.5993 335.159 48.5672 334.794 48.5445C334.771 48.5426 334.752 48.5426 334.729 48.5407C333.968 48.4973 333.209 48.4878 332.453 48.5161C332.446 48.5161 332.438 48.5161 332.43 48.518C330.467 48.5936 328.526 48.9205 326.674 49.5176C326.655 49.5232 326.636 49.5289 326.619 49.5346C326.361 49.6177 326.105 49.7065 325.852 49.801C325.827 49.8104 325.801 49.8199 325.774 49.8293C324.962 50.1354 324.166 50.4944 323.396 50.9101C323.356 50.9309 323.316 50.9535 323.276 50.9762C323.072 51.0896 322.865 51.2067 322.665 51.3277C322.604 51.3636 322.543 51.3995 322.485 51.4354C322.297 51.5506 322.112 51.6697 321.928 51.7925L321.756 51.9058C321.543 52.0513 321.333 52.2006 321.125 52.3555L321.059 52.4028C320.828 52.5766 320.6 52.7561 320.375 52.9431C320.33 52.9809 320.288 53.0187 320.243 53.0565C320.07 53.202 319.9 53.3513 319.729 53.5043C319.659 53.5686 319.591 53.6328 319.523 53.6989C319.377 53.8331 319.237 53.9691 319.097 54.1089C319.025 54.1807 318.953 54.2525 318.881 54.3262C318.739 54.4717 318.601 54.621 318.464 54.7721C318.404 54.8402 318.341 54.9082 318.279 54.9762C318.084 55.1973 317.891 55.424 317.705 55.6564C314.506 59.6375 314.505 63.8472 315.561 68.0739C315.65 68.4254 315.743 68.7787 315.845 69.1301C315.967 69.5496 316.097 69.9672 316.234 70.3847C316.442 71.0234 316.662 71.662 316.893 72.2987C317.885 74.551 318.656 76.7087 319.131 78.8117C319.182 79.046 319.231 79.2784 319.279 79.5108C319.413 80.208 319.517 80.8996 319.584 81.5854C319.606 81.8141 319.623 82.0427 319.637 82.2713C319.707 83.4125 319.676 84.5424 319.529 85.6704C319.383 86.7966 319.123 87.9189 318.737 89.045C318.582 89.4966 318.406 89.9482 318.211 90.3997C317.624 91.7564 316.845 93.1206 315.862 94.5055C315.609 94.8626 315.347 95.216 315.08 95.5636C313.211 98.0029 311.058 100.227 309.013 102.517C308.742 102.819 308.536 103.118 308.377 103.418C308.289 103.579 308.214 103.741 308.157 103.906C308.157 103.909 308.157 103.911 308.155 103.915C308.115 104.028 308.085 104.144 308.06 104.259C308.058 104.274 308.057 104.289 308.055 104.304C308.034 104.408 308.017 104.516 308.009 104.622V104.639C307.99 104.877 308.002 105.121 308.036 105.37C308.072 105.604 308.128 105.844 308.208 106.09V106.092C308.248 106.215 308.293 106.337 308.342 106.464C308.394 106.592 308.45 106.721 308.511 106.855C308.645 107.142 308.789 107.429 308.939 107.717C309.089 108.004 309.246 108.289 309.411 108.573C309.74 109.141 310.098 109.702 310.484 110.252C310.871 110.8 311.283 111.333 311.723 111.847C311.942 112.106 312.17 112.357 312.401 112.603C312.865 113.096 313.353 113.563 313.863 114.001C314.245 114.328 314.641 114.638 315.05 114.929C315.323 115.121 315.599 115.307 315.881 115.48C316.021 115.567 316.163 115.652 316.307 115.735C316.508 115.849 316.709 115.957 316.913 116.059C317.095 116.153 317.281 116.242 317.468 116.327C317.72 116.442 317.978 116.548 318.237 116.646C318.801 116.858 319.379 117.032 319.974 117.156C321.581 117.496 323.528 117.661 325.217 117.285C325.371 117.251 325.526 117.211 325.676 117.166C325.821 117.124 325.963 117.077 326.104 117.026C326.174 117 326.242 116.973 326.312 116.945C326.588 116.829 326.855 116.693 327.103 116.537C327.314 116.404 327.511 116.257 327.696 116.093C327.797 116.004 327.893 115.909 327.986 115.809C328.126 115.658 328.255 115.496 328.372 115.32C328.611 114.965 328.806 114.558 328.946 114.094C329.743 111.437 328.918 108.605 329.19 105.897C329.204 105.767 329.217 105.638 329.234 105.508C329.277 105.202 329.325 104.899 329.38 104.599C329.537 103.696 329.732 102.815 329.967 101.956C330.349 100.331 330.876 98.7455 331.529 97.215C331.716 96.7786 331.915 96.3459 332.124 95.9189C332.643 94.8513 333.226 93.8121 333.868 92.8126C336.178 89.2113 339.242 86.0937 342.808 83.7451C348.158 80.1532 356.89 78.1863 356.997 70.6096C357.138 62.1505 351.602 54.1845 343.95 50.9025Z" fill="white" fill-opacity="0.136965"/>
<path fill-rule="evenodd" clip-rule="evenodd" d="M116.193 153.605C115.789 153.248 115.444 152.772 115.15 152.157C113.492 148.693 111.979 145.129 109.946 141.868C104.701 133.455 97.5354 131.269 87.9604 131.451C86.3286 131.372 84.7081 131.248 83.1369 131.009C78.4233 130.288 74.1741 128.509 71.5018 123.605C67.0479 115.429 68.9071 106.044 74.1931 99.031C75.2487 97.6291 76.4428 96.3202 77.7524 95.1364C84.2873 88.8079 94.6583 86.5903 103.138 90.3047C110.744 93.6112 109.053 103.248 110.427 110.155C111.97 118.312 116.644 125.897 123.404 130.793C124.431 131.592 125.523 132.339 126.683 133.032C129.363 134.633 132.769 134.93 135.229 136.949C138.513 139.645 136.601 144.307 134.545 147.288C131.273 152.03 124.867 154.265 119.32 154.493C117.993 154.548 116.977 154.299 116.193 153.605Z" fill="#383075"/>
<path fill-rule="evenodd" clip-rule="evenodd" d="M77.9932 96.1192C76.6891 97.2999 75.4983 98.6036 74.4436 100.004C72.3797 102.742 70.8449 105.843 70 109.092C71.6369 105.981 73.6857 103.143 76.5454 100.857C84.0038 94.3425 97.2344 90.9254 103.035 99.2299C106.725 104.543 106.483 112.172 106.916 119.264C107.18 122.355 107.983 126.119 111.104 128.306C111.839 128.849 112.637 129.394 113.468 129.946C114.323 130.749 115.697 131.261 116.793 131.948C117.341 132.291 117.821 132.677 118.129 133.165C118.324 133.664 118.689 134.703 118.424 134.728C111.181 140.238 110.442 149.42 117.629 154.637C119.929 156.294 123.036 155.197 125.703 154.393C126.397 154.124 127.087 153.819 127.758 153.482C129.098 152.809 130.36 152.02 131.396 151.184C132.033 150.663 132.632 150.101 133.19 149.501C134.864 147.704 136.153 145.564 136.891 143.163C137.248 141.254 136.754 138.887 135.061 137.977C132.549 136.873 130.054 135.971 127.746 134.815C126.977 134.431 126.23 134.018 125.51 133.56C124.788 133.101 124.095 132.599 123.435 132.033C122.773 131.47 122.146 130.843 121.56 130.139C120.931 129.598 120.32 129.034 119.734 128.446C115.041 123.75 111.811 117.606 110.579 111.099C109.21 104.208 110.894 94.598 103.311 91.3C94.8529 87.5953 84.5103 89.8071 77.9932 96.1192Z" fill="#BE0152"/>
<path fill-rule="evenodd" clip-rule="evenodd" d="M110.019 142.3C111.036 143.652 111.963 144.916 112.384 146.5C116.916 143.094 119.018 139.646 118.995 133.696C119.052 132.879 118.59 132.246 117.912 131.754C117.236 131.259 116.345 130.906 115.553 130.642C115.11 130.424 114.679 130.214 114.295 130.013C113.88 129.75 113.478 129.475 113.105 129.179C112.76 128.948 112.425 128.716 112.096 128.487C111.767 128.258 111.447 128.029 111.138 127.802C107.997 125.593 107.188 121.794 106.92 118.671C106.486 111.512 106.727 103.812 103.011 98.4463C97.1686 90.0626 83.8423 93.5123 76.332 100.089C73.4497 102.398 71.386 105.262 69.7392 108.402C68.4161 113.502 68.7893 118.963 71.5097 123.972C74.1959 128.909 78.4642 130.703 83.1969 131.427C84.7751 131.67 86.4048 131.792 88.0439 131.874C93.4544 131.769 98.0977 132.42 102.063 134.518C102.505 134.751 102.935 135.001 103.362 135.27C104.675 136.053 105.89 137.123 107.005 138.349C107.563 138.963 108.098 139.616 108.605 140.286C109.107 140.955 109.581 141.631 110.019 142.3Z" fill="#EB0065"/>
<path fill-rule="evenodd" clip-rule="evenodd" d="M79.9816 124.5C77.1432 122.975 75.736 119.718 75.1022 116.767C74.5088 112.654 76.4819 106.169 81.4898 107.741C86.0495 109.063 85.717 114.676 85.9907 118.731C86.1744 121.432 83.608 123.806 80.7642 124.352C80.5125 124.402 80.2535 124.452 79.9816 124.5Z" fill="#BE0152"/>
<path fill-rule="evenodd" clip-rule="evenodd" d="M463.473 168.584C463.116 167.86 462.721 167.155 462.298 166.468C461.872 165.783 461.416 165.117 460.93 164.478C460.717 164.198 460.497 163.924 460.273 163.653C460.225 163.595 460.178 163.536 460.127 163.478C459.903 163.211 459.673 162.946 459.435 162.689C459.416 162.668 459.395 162.645 459.376 162.625C459.143 162.373 458.907 162.127 458.664 161.887C458.632 161.855 458.603 161.823 458.569 161.792C458.309 161.535 458.043 161.284 457.77 161.04C457.754 161.024 457.737 161.009 457.722 160.994C457.152 160.485 456.562 160.007 455.95 159.559C455.944 159.553 455.939 159.549 455.933 159.545C454.345 158.38 452.619 157.431 450.792 156.742C450.774 156.735 450.757 156.729 450.738 156.723C450.484 156.627 450.227 156.538 449.971 156.453C449.944 156.445 449.918 156.436 449.893 156.428C449.061 156.16 448.214 155.946 447.35 155.793C447.304 155.783 447.259 155.778 447.213 155.77C446.982 155.73 446.748 155.694 446.512 155.664C446.444 155.655 446.376 155.645 446.305 155.638C446.087 155.611 445.865 155.588 445.644 155.569C445.576 155.564 445.508 155.556 445.439 155.552C445.181 155.534 444.923 155.518 444.664 155.511C444.636 155.509 444.607 155.507 444.583 155.507C444.29 155.5 444 155.498 443.707 155.503C443.648 155.505 443.589 155.509 443.532 155.509C443.304 155.517 443.078 155.526 442.849 155.541C442.754 155.547 442.659 155.556 442.562 155.564C442.368 155.579 442.171 155.598 441.975 155.621C441.872 155.632 441.77 155.643 441.669 155.657C441.466 155.683 441.265 155.713 441.061 155.745C440.97 155.761 440.879 155.774 440.788 155.791C440.495 155.842 440.205 155.899 439.912 155.965C434.91 157.088 432.269 160.383 430.45 164.35C430.298 164.681 430.152 165.015 430.011 165.354C429.844 165.757 429.685 166.165 429.529 166.578C429.291 167.206 429.065 167.843 428.847 168.486C428.216 170.869 427.466 173.037 426.52 174.977C426.414 175.193 426.309 175.405 426.197 175.617C425.867 176.247 425.516 176.852 425.136 177.431C425.01 177.624 424.883 177.815 424.75 178.002C424.091 178.938 423.358 179.803 422.536 180.595C421.717 181.386 420.807 182.103 419.799 182.744C419.394 182.999 418.974 183.243 418.537 183.476C417.227 184.172 415.764 184.756 414.125 185.227C413.7 185.348 413.274 185.462 412.847 185.568C409.854 186.315 406.771 186.714 403.73 187.234C403.332 187.302 402.98 187.406 402.667 187.542C402.498 187.616 402.338 187.695 402.19 187.788C402.188 187.79 402.184 187.792 402.183 187.794C402.082 187.858 401.985 187.93 401.894 188.004C401.882 188.013 401.871 188.025 401.862 188.036C401.78 188.106 401.7 188.178 401.626 188.255L401.615 188.27C401.451 188.444 401.307 188.641 401.18 188.859C401.18 188.861 401.178 188.861 401.178 188.861C401.06 189.065 400.954 189.286 400.862 189.53C400.861 189.53 400.861 189.532 400.861 189.532C400.817 189.653 400.773 189.776 400.733 189.905C400.693 190.037 400.657 190.175 400.621 190.317C400.547 190.627 400.479 190.939 400.416 191.257C400.355 191.575 400.298 191.896 400.249 192.222C400.152 192.872 400.082 193.534 400.042 194.204C400 194.873 399.989 195.551 400.012 196.226C400.023 196.563 400.042 196.901 400.069 197.238C400.124 197.911 400.215 198.583 400.342 199.243C400.437 199.738 400.553 200.226 400.69 200.709C400.783 201.028 400.883 201.346 400.995 201.658C401.052 201.813 401.109 201.968 401.17 202.121C401.256 202.335 401.347 202.545 401.442 202.753C401.527 202.94 401.617 203.126 401.71 203.307C401.837 203.555 401.972 203.799 402.112 204.037C402.422 204.556 402.767 205.051 403.153 205.517C404.203 206.786 405.628 208.125 407.187 208.883C407.33 208.951 407.476 209.016 407.62 209.074C407.761 209.131 407.903 209.184 408.046 209.231C408.116 209.254 408.188 209.277 408.258 209.296C408.549 209.381 408.841 209.439 409.136 209.472C409.383 209.5 409.63 209.507 409.877 209.492C410.013 209.485 410.15 209.473 410.285 209.451C410.488 209.42 410.691 209.373 410.891 209.309C411.303 209.18 411.709 208.982 412.112 208.706C414.401 207.122 415.529 204.391 417.438 202.441C417.531 202.348 417.62 202.254 417.717 202.165C417.941 201.953 418.169 201.745 418.401 201.543C419.09 200.936 419.795 200.368 420.518 199.838C421.835 198.808 423.24 197.894 424.714 197.103C425.134 196.878 425.559 196.663 425.992 196.458C427.067 195.944 428.175 195.496 429.307 195.112C433.373 193.731 437.73 193.2 441.998 193.582C448.444 194.1 456.526 197.998 461.359 192.133C466.767 185.598 467.418 175.918 463.473 168.584Z" fill="white" fill-opacity="0.136965"/>
<path fill-rule="evenodd" clip-rule="evenodd" d="M172.146 62.1735C171.334 62.4718 170.538 62.8059 169.763 63.1759C168.987 63.5477 168.227 63.9536 167.492 64.3934C167.17 64.586 166.853 64.7879 166.541 64.9937L166.339 65.1258C166.031 65.3335 165.722 65.5468 165.423 65.7658C165.396 65.7846 165.373 65.8035 165.348 65.8224C165.054 66.0376 164.766 66.2603 164.484 66.4868C164.446 66.5152 164.41 66.5454 164.373 66.5756C164.07 66.8191 163.775 67.072 163.483 67.3287C163.466 67.3457 163.449 67.3627 163.431 67.3778C162.829 67.9158 162.252 68.4821 161.709 69.073C161.703 69.0786 161.697 69.0843 161.693 69.0899C160.28 70.6265 159.079 72.3292 158.149 74.1659C158.139 74.1829 158.129 74.2018 158.12 74.2187C157.993 74.4755 157.87 74.7341 157.752 74.9946C157.74 75.021 157.727 75.0474 157.717 75.0739C157.341 75.912 157.021 76.7765 156.764 77.6637C156.752 77.7091 156.739 77.7544 156.727 77.8015C156.658 78.0394 156.597 78.281 156.537 78.5226C156.52 78.5944 156.503 78.6661 156.487 78.7359C156.436 78.9644 156.386 79.1928 156.344 79.4212C156.33 79.4929 156.315 79.5627 156.301 79.6345C156.253 79.9025 156.211 80.1706 156.175 80.4405C156.171 80.4688 156.165 80.4971 156.161 80.5255C156.121 80.8275 156.088 81.1333 156.064 81.441C156.058 81.5014 156.056 81.5618 156.05 81.6222C156.035 81.86 156.021 82.0998 156.012 82.3414C156.008 82.4396 156.006 82.5415 156.004 82.6415C156 82.8473 155.998 83.0549 156.002 83.2626C156.002 83.3702 156.004 83.4797 156.008 83.5873C156.014 83.8006 156.025 84.0158 156.039 84.231C156.042 84.3272 156.046 84.4235 156.054 84.5198C156.077 84.8312 156.108 85.1408 156.146 85.4542C156.806 90.8019 160.034 93.9128 164.068 96.2365C164.406 96.431 164.747 96.6197 165.093 96.8029C165.503 97.0218 165.923 97.2314 166.347 97.4371C166.99 97.7524 167.646 98.0582 168.308 98.3545C170.78 99.2682 173.011 100.282 174.981 101.477C175.198 101.611 175.413 101.745 175.626 101.883C176.262 102.294 176.87 102.726 177.448 103.185C177.638 103.336 177.828 103.493 178.014 103.649C178.942 104.438 179.784 105.297 180.54 106.239C181.296 107.181 181.961 108.208 182.537 109.331C182.765 109.781 182.98 110.245 183.181 110.726C183.782 112.168 184.25 113.762 184.574 115.525C184.656 115.982 184.733 116.438 184.8 116.897C185.272 120.106 185.368 123.37 185.593 126.602C185.621 127.026 185.696 127.404 185.807 127.746C185.867 127.931 185.934 128.108 186.017 128.27C186.018 128.274 186.02 128.276 186.022 128.28C186.084 128.393 186.147 128.501 186.218 128.603C186.226 128.618 186.237 128.629 186.247 128.642C186.312 128.735 186.381 128.825 186.458 128.91C186.462 128.916 186.465 128.92 186.469 128.923C186.64 129.114 186.832 129.286 187.052 129.443C187.258 129.59 187.484 129.724 187.733 129.847H187.735C187.858 129.907 187.987 129.965 188.119 130.018C188.255 130.075 188.399 130.13 188.547 130.181C188.869 130.292 189.195 130.398 189.529 130.496C189.859 130.594 190.196 130.687 190.538 130.772C191.221 130.943 191.921 131.089 192.631 131.202C193.34 131.315 194.06 131.398 194.783 131.449C195.143 131.472 195.506 131.489 195.868 131.496C196.592 131.51 197.317 131.487 198.034 131.425C198.573 131.377 199.108 131.309 199.636 131.217C199.989 131.153 200.336 131.081 200.681 130.998C200.854 130.956 201.027 130.911 201.197 130.864C201.433 130.798 201.667 130.724 201.899 130.647C202.107 130.579 202.314 130.505 202.517 130.428C202.797 130.322 203.069 130.207 203.34 130.084C203.925 129.814 204.491 129.507 205.032 129.154C206.495 128.191 208.078 126.845 209.054 125.295C209.145 125.154 209.227 125.01 209.306 124.865C209.382 124.723 209.453 124.582 209.519 124.436C209.551 124.365 209.584 124.293 209.611 124.221C209.733 123.927 209.829 123.627 209.895 123.323C209.948 123.068 209.985 122.811 209.994 122.549C210.002 122.407 210.002 122.264 209.994 122.12C209.985 121.905 209.956 121.688 209.91 121.469C209.816 121.027 209.649 120.58 209.396 120.133C207.955 117.569 205.162 116.101 203.29 113.896C203.2 113.79 203.112 113.686 203.027 113.575C202.824 113.318 202.628 113.058 202.436 112.795C201.861 112.01 201.334 111.211 200.848 110.4C199.887 108.912 199.064 107.345 198.383 105.724C198.188 105.26 198.002 104.791 197.831 104.32C197.401 103.14 197.042 101.934 196.753 100.712C195.719 96.3121 195.621 91.7024 196.49 87.2814C197.739 80.601 202.766 72.5689 197.033 66.8927C190.647 60.5426 180.394 58.8304 172.146 62.1735Z" fill="white" fill-opacity="0.136965"/>
<path fill-rule="evenodd" clip-rule="evenodd" d="M55.5888 186.226C55.2236 186.998 54.8925 187.788 54.6029 188.59C54.3096 189.39 54.0561 190.207 53.8422 191.03C53.7495 191.39 53.6663 191.753 53.5868 192.117C53.5716 192.194 53.5546 192.272 53.5376 192.35C53.4638 192.714 53.3957 193.078 53.3351 193.442C53.3313 193.472 53.3275 193.504 53.3219 193.535C53.2632 193.891 53.2159 194.249 53.1743 194.608C53.1686 194.655 53.1629 194.701 53.1572 194.748C53.1137 195.133 53.0797 195.518 53.0532 195.904C53.0532 195.927 53.0513 195.952 53.0494 195.975C53.0002 196.778 52.9869 197.582 53.0134 198.384C53.0153 198.392 53.0153 198.397 53.0153 198.405C53.0872 200.485 53.424 202.538 54.0485 204.504C54.0523 204.523 54.0599 204.542 54.0655 204.561C54.1526 204.834 54.2472 205.105 54.3456 205.374C54.3551 205.401 54.3664 205.427 54.374 205.456C54.6938 206.318 55.0722 207.16 55.5094 207.977C55.5321 208.021 55.5548 208.06 55.5775 208.104C55.6967 208.322 55.8197 208.538 55.9465 208.754C55.9843 208.817 56.0222 208.879 56.0619 208.942C56.1811 209.141 56.3079 209.338 56.4366 209.533C56.4782 209.596 56.5161 209.657 56.5577 209.717C56.7091 209.941 56.8661 210.165 57.0289 210.385C57.0478 210.407 57.061 210.432 57.08 210.455C57.2635 210.701 57.4509 210.944 57.6495 211.183C57.6855 211.228 57.729 211.276 57.7669 211.321C57.9201 211.505 58.0772 211.687 58.2399 211.867C58.3081 211.941 58.3762 212.015 58.4443 212.089C58.5862 212.241 58.73 212.39 58.8758 212.538C58.9514 212.616 59.029 212.692 59.1066 212.768C59.2599 212.919 59.417 213.065 59.5759 213.211C59.6497 213.278 59.7197 213.344 59.7935 213.409C60.0263 213.617 60.2628 213.822 60.5088 214.019C64.7078 217.42 69.1661 217.441 73.6451 216.341C74.0179 216.248 74.3926 216.15 74.7654 216.044C75.2082 215.919 75.6529 215.78 76.0957 215.64C76.7712 215.422 77.4486 215.192 78.1223 214.95C80.5123 213.909 82.8001 213.103 85.0292 212.61C85.2752 212.555 85.5212 212.504 85.7672 212.457C86.5071 212.317 87.2394 212.21 87.966 212.142C88.2082 212.121 88.4505 212.102 88.6927 212.089C89.9 212.019 91.0978 212.057 92.2899 212.216C93.4802 212.377 94.6685 212.658 95.8607 213.071C96.3357 213.238 96.8125 213.424 97.2913 213.634C98.7237 214.262 100.166 215.088 101.627 216.135C102.003 216.406 102.378 216.685 102.745 216.969C105.318 218.958 107.665 221.244 110.079 223.418C110.397 223.707 110.713 223.927 111.029 224.095C111.202 224.188 111.372 224.27 111.544 224.328C111.548 224.33 111.552 224.33 111.555 224.332C111.677 224.374 111.796 224.406 111.919 224.433C111.934 224.437 111.951 224.437 111.966 224.44C112.078 224.461 112.189 224.48 112.303 224.49C112.31 224.49 112.316 224.49 112.32 224.49C112.573 224.51 112.831 224.499 113.096 224.463C113.344 224.427 113.595 224.368 113.858 224.285H113.86C113.989 224.243 114.121 224.196 114.254 224.143C114.39 224.091 114.526 224.031 114.67 223.966C114.975 223.826 115.279 223.676 115.582 223.519C115.887 223.362 116.19 223.195 116.492 223.022C117.094 222.677 117.69 222.3 118.273 221.892C118.856 221.487 119.422 221.052 119.967 220.59C120.241 220.359 120.51 220.12 120.769 219.877C121.293 219.388 121.789 218.872 122.254 218.334C122.605 217.93 122.934 217.511 123.244 217.083C123.448 216.796 123.645 216.503 123.831 216.205C123.923 216.057 124.014 215.905 124.103 215.756C124.224 215.545 124.338 215.331 124.45 215.117C124.548 214.923 124.643 214.728 124.733 214.531C124.856 214.264 124.97 213.992 125.076 213.716C125.303 213.12 125.488 212.508 125.625 211.882C125.99 210.182 126.172 208.123 125.782 206.333C125.746 206.17 125.704 206.007 125.657 205.848C125.613 205.694 125.564 205.543 125.509 205.393C125.485 205.319 125.454 205.247 125.424 205.175C125.305 204.879 125.165 204.597 124.998 204.333C124.858 204.111 124.703 203.901 124.531 203.706C124.436 203.6 124.336 203.493 124.228 203.397C124.071 203.249 123.901 203.112 123.715 202.985C123.341 202.731 122.909 202.525 122.417 202.375C119.609 201.52 116.606 202.382 113.743 202.081C113.605 202.066 113.469 202.053 113.332 202.032C113.009 201.986 112.687 201.933 112.369 201.876C111.415 201.706 110.482 201.493 109.572 201.241C107.854 200.83 106.177 200.267 104.563 199.567C104.102 199.368 103.646 199.156 103.191 198.934C102.066 198.38 100.968 197.758 99.9121 197.076C96.1086 194.615 92.8217 191.36 90.3522 187.574C86.5714 181.9 84.5277 172.65 76.5063 172.504C67.55 172.32 59.0972 178.142 55.5888 186.226Z" fill="white" fill-opacity="0.136965"/>
<path fill-rule="evenodd" clip-rule="evenodd" d="M70.6447 360.472C71.0122 361.201 71.4122 361.911 71.8464 362.599C72.2788 363.288 72.7454 363.956 73.2386 364.599C73.4576 364.88 73.6805 365.154 73.9071 365.426C73.9566 365.485 74.0061 365.542 74.0557 365.602C74.2842 365.87 74.5166 366.134 74.7565 366.392C74.7775 366.413 74.7984 366.436 74.8175 366.457C75.0536 366.708 75.2936 366.955 75.5393 367.196C75.5717 367.226 75.604 367.259 75.6345 367.289C75.8992 367.548 76.1697 367.798 76.4458 368.043C76.463 368.059 76.4782 368.072 76.4954 368.087C77.0705 368.596 77.6685 369.075 78.2856 369.521C78.2913 369.526 78.297 369.53 78.3027 369.534C79.9063 370.695 81.6471 371.639 83.4868 372.314L83.5421 372.333C83.7973 372.427 84.0563 372.515 84.3153 372.597C84.342 372.605 84.3686 372.615 84.3953 372.622C85.2295 372.884 86.0827 373.091 86.9511 373.238C86.9969 373.246 87.0407 373.252 87.0864 373.259C87.3206 373.298 87.5549 373.33 87.791 373.359C87.8596 373.369 87.9282 373.376 87.9986 373.384C88.2196 373.409 88.4405 373.428 88.6633 373.445C88.7319 373.451 88.8004 373.457 88.869 373.46C89.128 373.476 89.387 373.489 89.6479 373.495C89.6746 373.495 89.7013 373.497 89.7298 373.497C90.0212 373.503 90.3126 373.501 90.6059 373.491C90.665 373.489 90.724 373.485 90.7811 373.481C91.0078 373.474 91.2382 373.46 91.4668 373.443C91.5601 373.436 91.6572 373.428 91.7524 373.418C91.9486 373.399 92.1448 373.378 92.3428 373.353C92.4438 373.342 92.5466 373.328 92.6495 373.313C92.8513 373.284 93.0532 373.252 93.2551 373.217C93.3484 373.2 93.4379 373.187 93.5312 373.17C93.8207 373.114 94.1121 373.053 94.4073 372.984C99.4105 371.792 102.022 368.432 103.802 364.398C103.951 364.063 104.094 363.723 104.233 363.378C104.397 362.969 104.551 362.553 104.703 362.134C104.934 361.497 105.155 360.849 105.366 360.198C105.975 357.781 106.703 355.579 107.628 353.606C107.731 353.386 107.836 353.17 107.945 352.955C108.268 352.314 108.615 351.698 108.99 351.109C109.112 350.912 109.242 350.718 109.371 350.527C110.022 349.572 110.748 348.69 111.561 347.881C112.376 347.071 113.281 346.337 114.285 345.678C114.687 345.412 115.106 345.162 115.54 344.922C116.848 344.205 118.307 343.596 119.947 343.103C120.37 342.975 120.796 342.856 121.225 342.743C124.219 341.958 127.304 341.518 130.347 340.962C130.747 340.889 131.096 340.778 131.408 340.638C131.578 340.562 131.74 340.479 131.884 340.384C131.888 340.382 131.89 340.38 131.892 340.378C131.995 340.311 132.09 340.238 132.182 340.162C132.191 340.152 132.201 340.141 132.214 340.129C132.296 340.058 132.374 339.984 132.446 339.903C132.45 339.9 132.454 339.896 132.458 339.89C132.62 339.71 132.762 339.511 132.888 339.289H132.89C133.006 339.081 133.109 338.855 133.199 338.608C133.2 338.606 133.2 338.606 133.2 338.604C133.244 338.484 133.286 338.357 133.322 338.225C133.362 338.091 133.398 337.952 133.433 337.808C133.503 337.494 133.568 337.177 133.627 336.855C133.686 336.532 133.739 336.206 133.783 335.877C133.875 335.219 133.937 334.547 133.972 333.87C134.006 333.193 134.01 332.508 133.979 331.825C133.964 331.484 133.941 331.141 133.911 330.801C133.848 330.12 133.751 329.442 133.616 328.776C133.517 328.277 133.393 327.783 133.25 327.297C133.155 326.974 133.05 326.654 132.934 326.34C132.877 326.184 132.816 326.027 132.753 325.872C132.665 325.657 132.572 325.445 132.475 325.236C132.387 325.049 132.296 324.863 132.199 324.678C132.071 324.431 131.934 324.186 131.787 323.945C131.471 323.424 131.121 322.927 130.728 322.458C129.662 321.187 128.218 319.848 126.647 319.098C126.504 319.029 126.357 318.968 126.213 318.908C126.07 318.851 125.927 318.799 125.784 318.753C125.712 318.732 125.641 318.711 125.569 318.69C125.278 318.61 124.982 318.553 124.687 318.524C124.44 318.497 124.192 318.493 123.943 318.51C123.807 318.52 123.672 318.533 123.535 318.556C123.333 318.591 123.131 318.641 122.927 318.706C122.518 318.841 122.11 319.046 121.712 319.331C119.433 320.958 118.334 323.732 116.439 325.724C116.347 325.82 116.258 325.916 116.163 326.008C115.938 326.224 115.713 326.436 115.485 326.643C114.801 327.267 114.096 327.848 113.378 328.39C112.07 329.45 110.67 330.388 109.202 331.203C108.783 331.436 108.358 331.658 107.927 331.87C106.853 332.401 105.749 332.867 104.619 333.267C100.555 334.708 96.1919 335.294 91.9067 334.951C85.4409 334.498 77.2933 330.642 72.5111 336.627C67.1594 343.294 66.6109 353.095 70.6447 360.472Z" fill="white" fill-opacity="0.136965"/>
<path fill-rule="evenodd" clip-rule="evenodd" d="M477.606 328.339C477.951 327.605 478.259 326.855 478.531 326.093C478.805 325.332 479.042 324.557 479.242 323.775C479.326 323.433 479.403 323.089 479.477 322.744C479.491 322.67 479.508 322.595 479.523 322.521C479.59 322.176 479.654 321.832 479.709 321.487C479.715 321.456 479.719 321.426 479.721 321.397C479.774 321.059 479.816 320.719 479.855 320.379C479.861 320.336 479.866 320.292 479.87 320.247C479.908 319.882 479.939 319.516 479.96 319.151C479.96 319.128 479.96 319.105 479.962 319.083C480.006 318.321 480.012 317.56 479.979 316.8C479.979 316.794 479.977 316.787 479.977 316.779C479.893 314.81 479.556 312.868 478.943 311.011C478.937 310.992 478.929 310.973 478.924 310.956C478.839 310.697 478.749 310.443 478.652 310.188C478.642 310.162 478.633 310.137 478.621 310.111C478.309 309.296 477.943 308.5 477.518 307.729C477.495 307.689 477.473 307.65 477.451 307.61C477.334 307.405 477.215 307.2 477.09 306.996C477.056 306.938 477.018 306.879 476.981 306.82C476.862 306.63 476.742 306.446 476.615 306.262C476.579 306.203 476.539 306.146 476.5 306.089C476.353 305.876 476.201 305.667 476.044 305.458C476.027 305.437 476.012 305.415 475.995 305.394C475.816 305.16 475.634 304.932 475.445 304.708C475.408 304.665 475.366 304.621 475.33 304.577C475.18 304.404 475.029 304.234 474.872 304.065C474.807 303.994 474.742 303.926 474.675 303.856C474.539 303.713 474.399 303.571 474.259 303.432C474.184 303.36 474.111 303.288 474.037 303.216C473.889 303.075 473.734 302.937 473.581 302.8C473.512 302.737 473.445 302.675 473.374 302.614C473.15 302.42 472.922 302.228 472.684 302.04C468.634 298.85 464.368 298.864 460.084 299.94C459.728 300.03 459.37 300.126 459.013 300.229C458.59 300.352 458.168 300.485 457.743 300.622C457.098 300.833 456.45 301.057 455.806 301.29C453.527 302.297 451.341 303.075 449.212 303.559C448.975 303.615 448.739 303.664 448.503 303.709C447.797 303.85 447.095 303.954 446.4 304.025C446.168 304.047 445.936 304.066 445.705 304.082C444.547 304.158 443.402 304.129 442.26 303.987C441.116 303.844 439.974 303.588 438.833 303.204C438.375 303.051 437.917 302.876 437.457 302.682C436.08 302.099 434.695 301.326 433.287 300.345C432.923 300.09 432.564 299.83 432.21 299.564C429.731 297.698 427.467 295.548 425.135 293.505C424.829 293.237 424.526 293.03 424.221 292.871C424.056 292.785 423.892 292.709 423.725 292.654C423.723 292.654 423.719 292.652 423.715 292.652C423.601 292.615 423.484 292.582 423.367 292.559C423.353 292.556 423.336 292.556 423.321 292.552C423.214 292.533 423.108 292.516 422.999 292.508H422.98C422.738 292.491 422.491 292.501 422.24 292.539C422.003 292.575 421.761 292.632 421.51 292.713L421.509 292.715C421.384 292.755 421.259 292.799 421.131 292.85C421.003 292.901 420.871 292.958 420.736 293.021C420.445 293.158 420.156 293.302 419.865 293.452C419.576 293.604 419.286 293.763 418.997 293.929C418.422 294.261 417.855 294.623 417.3 295.013C416.746 295.402 416.206 295.82 415.687 296.26C415.426 296.482 415.171 296.708 414.922 296.942C414.426 297.409 413.953 297.901 413.512 298.415C413.183 298.801 412.868 299.198 412.577 299.608C412.382 299.881 412.194 300.161 412.02 300.443C411.932 300.586 411.847 300.728 411.763 300.873C411.648 301.074 411.541 301.277 411.435 301.48C411.342 301.664 411.252 301.851 411.167 302.037C411.052 302.293 410.945 302.549 410.847 302.811C410.633 303.377 410.46 303.958 410.336 304.553C409.997 306.169 409.84 308.121 410.227 309.812C410.263 309.968 410.303 310.12 410.349 310.27C410.391 310.416 410.439 310.561 410.493 310.701C410.518 310.771 410.547 310.84 410.577 310.908C410.692 311.185 410.832 311.451 410.993 311.702C411.127 311.911 411.276 312.108 411.445 312.292C411.537 312.395 411.631 312.492 411.734 312.585C411.888 312.721 412.052 312.851 412.231 312.968C412.591 313.208 413.004 313.399 413.476 313.538C416.175 314.328 419.043 313.489 421.788 313.751C421.92 313.764 422.051 313.777 422.181 313.794C422.491 313.838 422.802 313.884 423.106 313.937C424.02 314.091 424.915 314.284 425.788 314.516C427.438 314.892 429.045 315.414 430.599 316.065C431.041 316.251 431.482 316.447 431.915 316.654C433.001 317.17 434.057 317.751 435.072 318.391C438.733 320.695 441.906 323.754 444.3 327.322C447.961 332.671 449.992 341.421 457.676 341.499C466.251 341.605 474.305 336.026 477.606 328.339Z" fill="white" fill-opacity="0.136965"/>
<path fill-rule="evenodd" clip-rule="evenodd" d="M193.745 457.417C194.49 457.738 195.25 458.026 196.019 458.274C196.791 458.524 197.572 458.736 198.359 458.911C198.703 458.988 199.05 459.054 199.398 459.115C199.472 459.129 199.546 459.142 199.62 459.156C199.966 459.213 200.314 459.266 200.664 459.31C200.69 459.314 200.721 459.316 200.751 459.32C201.091 459.362 201.431 459.396 201.773 459.423L201.907 459.434C202.271 459.461 202.64 459.48 203.005 459.489C203.028 459.491 203.049 459.491 203.071 459.491C203.837 459.512 204.599 459.495 205.356 459.442C205.363 459.442 205.371 459.44 205.376 459.44C207.345 459.297 209.28 458.902 211.119 458.238L211.174 458.219C211.429 458.125 211.682 458.028 211.932 457.925C211.959 457.913 211.986 457.902 212.008 457.892C212.816 457.557 213.601 457.167 214.361 456.723C214.399 456.7 214.437 456.675 214.475 456.652C214.68 456.532 214.88 456.406 215.081 456.276C215.138 456.238 215.197 456.2 215.254 456.162C215.438 456.038 215.623 455.912 215.801 455.782C215.858 455.742 215.915 455.702 215.971 455.662C216.18 455.509 216.385 455.351 216.588 455.189C216.609 455.17 216.63 455.154 216.653 455.137C216.879 454.954 217.101 454.765 217.32 454.569C217.365 454.531 217.405 454.491 217.449 454.45C217.618 454.298 217.783 454.141 217.949 453.981C218.017 453.914 218.086 453.846 218.152 453.779C218.291 453.64 218.428 453.496 218.564 453.351C218.635 453.275 218.703 453.201 218.773 453.123C218.908 452.972 219.043 452.815 219.176 452.659C219.235 452.588 219.296 452.52 219.357 452.447C219.543 452.216 219.729 451.983 219.91 451.741C222.983 447.618 222.844 443.369 221.645 439.137C221.544 438.786 221.436 438.433 221.324 438.08C221.187 437.662 221.042 437.244 220.892 436.827C220.662 436.191 220.421 435.554 220.166 434.919C219.097 432.679 218.251 430.526 217.706 428.42C217.645 428.185 217.588 427.953 217.536 427.72C217.375 427.02 217.249 426.327 217.158 425.634C217.13 425.405 217.103 425.175 217.08 424.944C216.974 423.795 216.968 422.654 217.077 421.511C217.185 420.37 217.409 419.227 217.761 418.077C217.899 417.617 218.061 417.157 218.241 416.694C218.785 415.307 219.518 413.902 220.459 412.471C220.702 412.103 220.951 411.739 221.208 411.378C223.002 408.854 225.086 406.538 227.063 404.156C227.323 403.844 227.519 403.534 227.671 403.227C227.752 403.061 227.823 402.895 227.872 402.727C227.874 402.724 227.874 402.722 227.876 402.718C227.91 402.601 227.937 402.485 227.958 402.367C227.961 402.353 227.961 402.338 227.963 402.323C227.98 402.214 227.992 402.107 227.997 402V401.981C228.007 401.741 227.99 401.495 227.944 401.247V401.245C227.902 401.01 227.836 400.772 227.75 400.524C227.75 400.524 227.749 400.524 227.749 400.522C227.705 400.4 227.657 400.278 227.6 400.152C227.545 400.024 227.484 399.894 227.418 399.762C227.275 399.476 227.121 399.192 226.96 398.908C226.802 398.623 226.635 398.341 226.46 398.059C226.111 397.496 225.732 396.94 225.326 396.401C224.921 395.861 224.49 395.334 224.032 394.83C223.802 394.578 223.566 394.332 223.327 394.092C222.844 393.611 222.34 393.155 221.814 392.732C221.419 392.413 221.01 392.111 220.592 391.833C220.311 391.648 220.028 391.47 219.741 391.304C219.596 391.22 219.45 391.14 219.302 391.062C219.1 390.953 218.893 390.852 218.686 390.755C218.498 390.665 218.312 390.583 218.12 390.503C217.861 390.396 217.603 390.297 217.337 390.205C216.765 390.011 216.18 389.854 215.579 389.749C213.954 389.459 211.997 389.36 210.317 389.795C210.161 389.835 210.011 389.881 209.859 389.929C209.715 389.978 209.574 390.03 209.435 390.087C209.367 390.116 209.299 390.144 209.23 390.175C208.955 390.301 208.692 390.446 208.447 390.614C208.244 390.753 208.05 390.909 207.872 391.081C207.773 391.175 207.676 391.274 207.586 391.379C207.453 391.535 207.328 391.703 207.218 391.882C206.99 392.249 206.807 392.667 206.684 393.142C205.973 395.849 206.897 398.681 206.712 401.42C206.703 401.552 206.693 401.684 206.682 401.815C206.648 402.124 206.61 402.434 206.566 402.737C206.439 403.655 206.271 404.549 206.064 405.425C205.736 407.078 205.262 408.695 204.654 410.26C204.481 410.708 204.299 411.151 204.103 411.588C203.617 412.685 203.068 413.752 202.458 414.782C200.263 418.495 197.291 421.744 193.792 424.232C188.549 428.037 179.856 430.313 180.002 437.966C180.144 446.508 185.959 454.359 193.745 457.417Z" fill="white" fill-opacity="0.136965"/>
<path fill-rule="evenodd" clip-rule="evenodd" d="M366.641 439.514C367.437 439.189 368.217 438.826 368.976 438.427C369.735 438.027 370.475 437.594 371.192 437.126C371.505 436.923 371.812 436.708 372.118 436.491C372.182 436.445 372.247 436.398 372.314 436.35C372.613 436.132 372.911 435.909 373.201 435.677C373.226 435.658 373.251 435.637 373.277 435.618C373.56 435.392 373.836 435.158 374.111 434.92C374.147 434.89 374.183 434.859 374.22 434.829C374.511 434.57 374.796 434.308 375.078 434.038C375.095 434.023 375.11 434.006 375.128 433.989C375.709 433.426 376.262 432.836 376.783 432.224C376.787 432.218 376.793 432.212 376.798 432.207C378.151 430.615 379.288 428.86 380.15 426.981C380.157 426.962 380.167 426.943 380.175 426.924C380.293 426.664 380.407 426.399 380.514 426.133C380.526 426.106 380.537 426.08 380.548 426.051C380.894 425.196 381.182 424.315 381.407 423.414C381.42 423.366 381.43 423.321 381.441 423.273C381.5 423.032 381.554 422.786 381.605 422.541C381.62 422.469 381.634 422.397 381.647 422.322C381.693 422.092 381.731 421.862 381.769 421.63C381.781 421.558 381.79 421.486 381.802 421.413C381.84 421.143 381.872 420.871 381.901 420.598L381.912 420.512C381.941 420.206 381.962 419.898 381.977 419.588C381.981 419.527 381.981 419.466 381.983 419.403C381.994 419.164 382 418.922 382 418.679C382 418.58 381.998 418.477 381.996 418.377C381.994 418.169 381.989 417.96 381.979 417.751C381.973 417.643 381.968 417.534 381.962 417.424C381.949 417.211 381.931 416.994 381.91 416.777C381.901 416.68 381.893 416.583 381.884 416.486C381.851 416.175 381.811 415.863 381.762 415.549C380.926 410.187 377.613 407.161 373.525 404.953C373.186 404.769 372.839 404.59 372.488 404.417C372.074 404.212 371.65 404.014 371.223 403.82C370.573 403.523 369.911 403.238 369.243 402.961C366.756 402.122 364.503 401.175 362.506 400.036C362.285 399.91 362.067 399.781 361.85 399.65C361.203 399.256 360.585 398.84 359.998 398.399C359.801 398.252 359.607 398.102 359.418 397.95C358.47 397.185 357.604 396.349 356.822 395.425C356.038 394.502 355.341 393.491 354.733 392.378C354.489 391.935 354.26 391.473 354.044 390.996C353.4 389.56 352.883 387.974 352.499 386.21C352.4 385.753 352.311 385.295 352.229 384.835C351.652 381.619 351.448 378.337 351.115 375.091C351.073 374.663 350.985 374.287 350.865 373.946C350.798 373.762 350.725 373.585 350.636 373.425C350.634 373.421 350.632 373.418 350.63 373.416C350.569 373.304 350.5 373.197 350.428 373.096C350.418 373.081 350.407 373.072 350.397 373.058C350.329 372.965 350.256 372.878 350.18 372.794C350.174 372.79 350.17 372.786 350.165 372.781C349.991 372.596 349.793 372.429 349.571 372.279C349.57 372.279 349.57 372.279 349.57 372.279C349.36 372.138 349.131 372.009 348.879 371.895H348.877C348.753 371.837 348.625 371.784 348.488 371.733C348.353 371.682 348.21 371.632 348.061 371.585C347.736 371.484 347.408 371.389 347.075 371.299C346.741 371.212 346.403 371.13 346.062 371.054C345.377 370.904 344.677 370.782 343.967 370.691C343.258 370.6 342.541 370.539 341.82 370.514C341.461 370.501 341.099 370.497 340.74 370.503C340.019 370.512 339.3 370.558 338.588 370.645C338.056 370.708 337.526 370.795 337.005 370.908C336.656 370.98 336.313 371.065 335.973 371.161C335.802 371.21 335.634 371.259 335.466 371.313C335.233 371.387 335.002 371.469 334.775 371.554C334.571 371.63 334.367 371.71 334.167 371.796C333.894 371.912 333.625 372.037 333.362 372.168C332.788 372.459 332.236 372.788 331.712 373.161C330.287 374.178 328.761 375.584 327.842 377.177C327.758 377.324 327.68 377.472 327.605 377.62C327.535 377.765 327.47 377.911 327.409 378.058C327.378 378.13 327.352 378.204 327.325 378.278C327.214 378.579 327.13 378.883 327.075 379.191C327.027 379.449 327.002 379.71 327.001 379.972C326.999 380.117 327.002 380.261 327.014 380.406C327.033 380.623 327.067 380.841 327.121 381.058C327.229 381.501 327.411 381.946 327.676 382.387C329.194 384.92 332.019 386.308 333.951 388.465C334.045 388.568 334.138 388.672 334.228 388.779C334.436 389.033 334.64 389.288 334.838 389.545C335.437 390.317 335.988 391.104 336.498 391.905C337.503 393.371 338.373 394.921 339.105 396.531C339.315 396.991 339.512 397.457 339.7 397.927C340.168 399.102 340.564 400.302 340.893 401.523C342.068 405.919 342.319 410.557 341.604 415.037C340.589 421.805 335.859 430.056 341.749 435.582C348.309 441.766 358.557 443.15 366.641 439.514Z" fill="white" fill-opacity="0.136965"/>
<path fill-rule="evenodd" clip-rule="evenodd" d="M212.403 81.6021C105.681 111.18 44.6974 235.784 99.4981 335.321C132.303 394.902 200.077 429.674 267.526 426.271C344.594 422.387 421.748 370.222 444.303 294.841C479.058 178.675 372.793 71.3762 258.138 74.5695C242.718 74.9989 227.254 77.4855 212.403 81.6021Z" fill="#EB0065"/>
<path fill-rule="evenodd" clip-rule="evenodd" d="M387.431 121.5C381.732 133.121 395.855 139.854 400.242 149.121C405.999 161.486 410.446 174.243 413.736 187.314C414.311 189.619 414.84 191.937 415.326 194.265C417.26 203.571 418.427 213.02 418.505 222.626C418.591 227.137 418.478 231.619 418.17 236.086C414.21 293.928 377.331 348.99 320.903 369.827C315.229 372.514 309.419 374.91 303.5 377.013C273.908 387.533 241.621 390.771 210.429 386.705C203.828 385.847 197.26 384.689 190.762 383.297C184.536 382.262 178.438 380.687 172.489 378.621C157.713 373.522 144.32 365.677 132.518 355.864C130.157 353.903 127.861 351.86 125.632 349.747C117.919 341.736 110.631 333.195 104.484 323.865C103.459 322.311 102.466 320.731 101.506 319.125C93.3862 305.82 87.134 291.083 85.373 275.382C85.095 272.451 83.4805 269.645 80.4134 268.59C78.0489 286.293 86.3496 302.72 92.0573 318.838C92.7065 320.566 93.3748 322.248 94.0697 323.913C97.5385 332.2 101.702 340.111 106.945 347.611C108.944 350.558 111.037 353.406 113.222 356.189C128.516 375.658 148.266 391.973 169.429 404.476C173.81 406.766 178.225 408.856 182.709 410.772C196.154 416.52 210.295 420.744 224.728 423.343C233.28 424.883 241.937 425.851 250.611 426.227C258.419 426.669 266.19 426.569 273.891 425.963C281.592 425.356 289.223 424.245 296.747 422.667C306.06 420.615 315.304 417.885 324.368 414.525C342.218 407.869 359.435 398.826 375.118 387.663C380.346 383.942 385.407 379.986 390.26 375.804C432.373 342.505 456.207 287.612 450.035 234.22C449.563 230.106 448.909 226.001 448.076 221.906C444.401 202.747 437.325 184.337 427.411 167.673C426.174 165.59 424.891 163.534 423.564 161.508C413.578 147.594 403.341 133.5 389.561 123.267C388.733 122.666 388.046 122.077 387.431 121.5Z" fill="#BE0152"/>
<path fill-rule="evenodd" clip-rule="evenodd" d="M367.733 125.405C368.078 124.943 368.551 124.534 369.178 124.167C372.709 122.095 376.361 120.171 379.643 117.715C388.113 111.381 389.807 103.547 388.776 93.3502C388.72 91.6022 388.708 89.8619 388.826 88.1653C389.178 83.0755 390.697 78.387 395.669 75.1079C403.954 69.6396 414.079 70.7999 421.982 75.8231C423.563 76.8274 425.056 77.9876 426.425 79.2791C433.714 85.6965 436.971 96.5627 433.77 105.936C430.924 114.337 420.552 113.378 413.339 115.45C404.819 117.81 397.179 123.459 392.572 131.1C391.813 132.264 391.116 133.494 390.481 134.793C389.017 137.791 389 141.45 387.072 144.25C384.498 147.991 379.38 146.359 376.039 144.427C370.72 141.353 367.788 134.715 367.062 128.817C366.89 127.408 367.062 126.305 367.733 125.405Z" fill="#302D6D"/>
<path fill-rule="evenodd" clip-rule="evenodd" d="M426.426 78.9469C425.054 77.649 423.562 76.4831 421.98 75.4738C418.889 73.4974 415.453 72.1212 411.922 71.5C415.375 72.9852 418.573 74.9367 421.257 77.8096C428.841 85.2507 433.639 99.1697 425.308 106.139C419.978 110.573 411.839 110.988 404.331 112.078C401.063 112.636 397.129 113.83 395.076 117.378C389.956 125.756 384.959 141.024 373.498 132.811C371.247 131.32 368.537 129.33 367.071 126.897C366.978 127.445 366.978 128.051 367.061 128.73C367.787 134.657 370.719 141.328 376.036 144.417C379.379 146.359 384.495 147.999 387.071 144.239C388.997 141.425 389.016 137.748 390.479 134.735C391.113 133.43 391.812 132.193 392.572 131.023C397.178 123.345 404.819 117.668 413.339 115.296C420.55 113.215 430.924 114.178 433.771 105.735C436.97 96.3159 433.714 85.396 426.426 78.9469Z" fill="#BE0152"/>
<path fill-rule="evenodd" clip-rule="evenodd" d="M373.466 133.149C385 141.356 390.025 126.097 395.178 117.723C397.244 114.178 401.202 112.984 404.487 112.426C412.042 111.337 420.231 110.922 425.595 106.49C433.975 99.5242 429.149 85.6121 421.519 78.1745C418.818 75.3031 415.6 73.3525 412.126 71.868C406.605 70.9052 400.846 71.7783 395.773 75.1197C390.77 78.4153 389.242 83.1246 388.887 88.2371C388.769 89.9412 388.781 91.6893 388.838 93.445C389.874 103.687 388.171 111.556 379.648 117.916C376.346 120.383 372.671 122.318 369.119 124.399C368.488 124.767 368.012 125.178 367.665 125.642C367.313 126.112 367.101 126.64 367 127.238C368.475 129.67 371.204 131.658 373.466 133.149Z" fill="#EB0065"/>
<path fill-rule="evenodd" clip-rule="evenodd" d="M394.79 93.3153C393.293 90.0937 394.151 86.2913 395.487 83.2665C397.601 79.2463 403.473 74.8267 406.832 79.5234C409.959 83.7022 406.077 88.4371 403.72 92.1956C402.15 94.7006 398.393 95.0999 395.565 93.7012C395.315 93.5809 395.059 93.4528 394.79 93.3153Z" fill="#BE0152"/>
<mask id="mask0" mask-type="alpha" maskUnits="userSpaceOnUse" x="24" y="252" width="78" height="48">
<path fill-rule="evenodd" clip-rule="evenodd" d="M24 252.668H101.615V299.621H24V252.668Z" fill="white"/>
</mask>
<g mask="url(#mask0)">
<path fill-rule="evenodd" clip-rule="evenodd" d="M91.7503 260.103C91.21 260.108 90.6373 260.242 90.0114 260.514C86.4786 262.036 82.9914 263.732 79.3083 264.859C69.8094 267.767 62.934 264.75 55.7847 258.386C54.4929 257.383 53.1821 256.42 51.8314 255.58C47.7811 253.054 43.3865 251.628 38.1395 253.576C29.3978 256.82 24.6493 265.082 24.0615 273.791C23.9435 275.532 23.9949 277.29 24.2099 279.03C25.0203 288.038 31.4391 296.449 40.314 299.175C48.2586 301.638 53.2944 293.296 58.8723 289C65.3939 283.875 73.9168 281.216 82.2609 281.934C83.5641 282.002 84.8844 282.151 86.2199 282.385C89.3037 282.925 92.0851 284.917 95.2774 285C99.5389 285.112 101.145 280.362 101.54 276.787C102.168 271.096 98.7684 265.248 94.7086 261.469C93.7364 260.566 92.8042 260.091 91.7503 260.103Z" fill="#EB0065"/>
</g>
<path fill-rule="evenodd" clip-rule="evenodd" d="M24.2101 278.752C23.9932 276.99 23.9437 275.207 24.0617 273.443C24.2919 269.991 25.1632 266.608 26.6566 263.571C25.8576 267.026 25.5513 270.546 26.2248 274.179C27.6173 284.08 35.4402 295.43 45.3214 292.925C51.6223 291.308 56.4583 285.327 61.4503 280.199C63.6876 278.015 66.7733 275.672 70.5877 276.066C79.7442 276.787 94.0258 281.411 94.2065 268.128C94.3321 265.587 94.3397 262.418 93.32 259.955C93.7842 260.188 94.2427 260.524 94.7087 260.963C98.7686 264.791 102.168 270.714 101.539 276.478C101.145 280.101 99.539 284.912 95.2757 284.798C92.0853 284.716 89.3039 282.698 86.2201 282.15C84.8846 281.911 83.5643 281.762 82.2611 281.694C73.917 280.966 65.3922 283.66 58.8725 288.851C53.2946 293.204 48.2588 301.651 40.3142 299.158C31.4393 296.396 25.0205 287.877 24.2101 278.752Z" fill="#BE0152"/>
<path fill-rule="evenodd" clip-rule="evenodd" d="M92.9412 268.491C92.7616 281.701 78.5656 277.103 69.466 276.385C65.6745 275.994 62.6054 278.323 60.3815 280.495C55.4195 285.594 50.6144 291.542 44.3513 293.15C34.5293 295.641 26.7534 284.355 25.3692 274.509C24.6979 270.897 25.0023 267.396 25.7985 263.96C28.1093 259.267 31.9235 255.404 37.2127 253.414C42.4281 251.453 46.7964 252.89 50.8224 255.432C52.1631 256.281 53.466 257.251 54.7519 258.259C61.8584 264.67 68.6907 267.711 78.1345 264.782C81.7955 263.645 85.2617 261.936 88.7715 260.402C89.3936 260.131 89.9647 259.994 90.5018 259.988C91.0464 259.984 91.5608 260.114 92.0619 260.364C93.0755 262.813 93.0679 265.965 92.9412 268.491Z" fill="#EB0065"/>
<path fill-rule="evenodd" clip-rule="evenodd" d="M52 262.429C50.4548 259.596 47.1864 258.209 44.2333 257.593C40.1171 257.026 33.6432 259.049 35.2515 264.059C36.6056 268.618 42.2169 268.246 46.2719 268.492C48.9764 268.658 51.3322 266.068 51.8572 263.214C51.9054 262.963 51.9537 262.702 52 262.429Z" fill="#BE0152"/>
<mask id="mask1" mask-type="alpha" maskUnits="userSpaceOnUse" x="222" y="16" width="50" height="82">
<path fill-rule="evenodd" clip-rule="evenodd" d="M222.598 16.7581H271.568V97.8596H222.598V16.7581Z" fill="white"/>
</mask>
<g mask="url(#mask1)">
<path fill-rule="evenodd" clip-rule="evenodd" d="M236.467 89.431C236.405 88.8678 236.473 88.255 236.677 87.5677C237.822 83.7037 239.152 79.8588 239.867 75.8841C241.709 65.6323 237.722 58.8627 230.221 52.2305C229.021 51.0125 227.856 49.7697 226.815 48.4715C223.687 44.5788 221.662 40.1879 223.036 34.4836C225.323 24.9744 233.319 18.9913 242.293 17.2788C244.087 16.9352 245.921 16.7634 247.759 16.7691C257.217 16.4713 266.752 22.0859 270.687 30.9727C274.23 38.926 266.189 45.2222 262.415 51.568C257.901 59.0001 256.193 68.2038 257.976 76.7947C258.207 78.1426 258.526 79.4961 258.934 80.8573C259.878 83.9958 262.292 86.638 262.776 89.9484C263.42 94.3679 258.685 96.6397 255.016 97.5046C249.18 98.8772 242.684 96.0823 238.252 92.3347C237.195 91.4375 236.585 90.5268 236.467 89.431Z" fill="#EB0065"/>
</g>
<path fill-rule="evenodd" clip-rule="evenodd" d="M245.26 90.981C259.051 89.1342 252.447 74.8656 250.545 65.4352C249.657 61.5184 251.704 58.0175 253.693 55.4191C258.398 49.5887 264.009 43.8157 264.9 37.06C266.263 26.4754 253.475 19.7598 243.006 19.5462C239.142 19.3 235.52 20.0594 232.028 21.3204C227.411 24.3272 223.853 28.8029 222.443 34.5837C221.051 40.2862 223.106 44.6742 226.275 48.5642C227.332 49.8616 228.512 51.1036 229.73 52.3208C237.332 58.9486 241.376 65.7137 239.507 75.9588C238.782 79.9309 237.433 83.7713 236.275 87.6347C236.066 88.3196 235.997 88.9339 236.059 89.4967C236.124 90.0672 236.323 90.5861 236.65 91.0802C239.339 91.8338 242.634 91.4294 245.26 90.981Z" fill="#EB0065"/>
<path fill-rule="evenodd" clip-rule="evenodd" d="M234.346 47.5C231.213 46.2322 229.368 42.9598 228.361 39.9178C227.26 35.644 228.556 28.5512 233.959 29.6055C238.861 30.452 239.172 36.4243 239.932 40.6755C240.439 43.5096 238.042 46.3286 235.143 47.2487C234.889 47.3337 234.623 47.4169 234.346 47.5Z" fill="#BE0152"/>
<path fill-rule="evenodd" clip-rule="evenodd" d="M143.92 362.013C143.635 362.471 143.442 363.024 143.335 363.695C142.74 367.48 142.313 371.321 141.297 375.022C138.673 384.565 132.382 388.717 123.075 391.298C121.519 391.845 119.987 392.427 118.538 393.109C114.194 395.152 110.605 398.078 109.445 403.529C107.519 412.62 112.043 421.05 119.191 426.227C120.62 427.262 122.154 428.166 123.763 428.921C131.923 433.086 142.589 432.218 149.706 426.231C156.096 420.883 151.661 412.165 150.98 405.172C150.1 396.938 152.413 388.348 157.523 381.727C158.284 380.667 159.122 379.638 160.043 378.644C162.166 376.345 165.373 375.079 167.161 372.443C169.555 368.922 166.35 365.02 163.496 362.764C158.956 359.177 152.113 358.885 146.685 360.265C145.388 360.596 144.479 361.124 143.92 362.013Z" fill="#383075"/>
<path fill-rule="evenodd" clip-rule="evenodd" d="M124.369 428.921C122.782 428.166 121.268 427.262 119.859 426.227C117.098 424.2 114.74 421.672 113 418.805C115.457 421.313 118.232 423.438 121.625 424.802C130.626 428.887 144.255 428.342 147.414 418.715C149.412 412.561 146.989 405.327 145.362 398.411C144.728 395.374 144.413 391.536 146.768 388.543C152.236 381.235 163.682 371.694 152.691 364.49C150.636 363.035 147.997 361.345 145.4 360.895C145.84 360.628 146.362 360.422 146.976 360.265C152.329 358.885 159.08 359.177 163.558 362.764C166.371 365.018 169.534 368.922 167.173 372.443C165.407 375.077 162.245 376.343 160.15 378.642C159.243 379.638 158.416 380.667 157.665 381.727C152.627 388.348 150.346 396.938 151.214 405.172C151.884 412.165 156.257 420.881 149.957 426.231C142.936 432.218 132.416 433.086 124.369 428.921Z" fill="#BE0152"/>
<path fill-rule="evenodd" clip-rule="evenodd" d="M147.361 388.433C144.98 391.457 145.299 395.334 145.94 398.403C147.586 405.39 150.035 412.701 148.013 418.916C144.82 428.643 131.044 429.195 121.944 425.068C118.514 423.688 114.71 421.541 112.225 419.01C109.49 414.504 108.274 409.164 109.444 403.574C110.598 398.066 114.176 395.111 118.51 393.046C119.954 392.358 121.48 391.769 123.033 391.216C132.31 388.609 138.582 384.414 141.199 374.773C142.214 371.034 142.637 367.153 143.232 363.329C143.337 362.651 143.53 362.092 143.814 361.63C144.106 361.161 144.493 360.794 144.978 360.5C147.604 360.955 151.271 362.662 153.348 364.132C164.459 371.412 152.889 381.05 147.361 388.433Z" fill="#EB0065"/>
<path fill-rule="evenodd" clip-rule="evenodd" d="M125.064 396.518C121.769 396.283 118.786 398.389 116.642 400.66C113.909 403.982 112.131 410.859 117.344 412.271C122.031 413.652 124.768 408.474 127.191 405.021C128.807 402.72 127.85 399.168 125.662 397.086C125.474 396.901 125.274 396.713 125.064 396.518Z" fill="#BE0152"/>
<path fill-rule="evenodd" clip-rule="evenodd" d="M105.163 234.858C102.382 231.155 101.59 226.404 102.187 222.116C102.305 221.14 102.444 220.163 102.601 219.189C103.694 212.365 105.661 205.629 107.938 199.729C111.723 189.923 118.768 173.877 130.313 171.061C138.597 169.04 143.366 172.565 141.654 180.304C138.428 194.883 129.663 210.327 123.06 223.773C121.582 226.785 120.074 229.832 117.848 232.363C117.403 232.869 116.931 233.352 116.429 233.797C114.072 236.087 110.156 237.58 106.925 235.528C106.375 235.32 105.79 235.094 105.163 234.858Z" fill="#F43285"/>
<path fill-rule="evenodd" clip-rule="evenodd" d="M330.589 251.036C329.909 243.649 323.961 237.034 316.424 236.545C313.423 236.348 310.272 236.802 307.328 237.82C304.381 238.841 301.643 240.426 299.521 242.484C295.594 246.144 294.2 251.774 295.439 257.156C297.054 263.938 302.627 269.153 309.218 270.782C312.29 271.624 315.565 271.766 318.752 270.991C325.345 269.178 330.81 263.167 330.944 256.175C331.077 254.6 330.979 252.897 330.589 251.036Z" fill="#EB0065"/>
<path fill-rule="evenodd" clip-rule="evenodd" d="M143.411 157.332C140.662 151.776 142.148 145.415 145.99 140.692C151.033 134.489 161.065 129.102 167.714 135.133C175.557 142.113 167.806 153.456 160.653 158.022C159.38 158.891 157.988 159.67 156.542 160.271C153.648 161.471 150.551 161.951 147.812 160.984C146.441 160.501 145.162 159.653 144.043 158.357C143.845 158.015 143.636 157.671 143.411 157.332Z" fill="#F43285"/>
<path fill-rule="evenodd" clip-rule="evenodd" d="M257.417 268.436C256.797 264.379 255.793 257.804 260.951 256.64C263.804 255.995 266.751 256.748 268.179 259.413C269.426 261.736 269.651 264.492 270.056 267.046C270.451 269.526 274.37 269.174 273.972 266.677C273.12 261.304 272.201 254.787 266.115 252.969C263.161 252.086 259.45 252.426 256.872 254.194C254.682 255.697 253.533 258.227 253.172 260.787C252.796 263.456 253.096 266.16 253.499 268.805C253.879 271.29 257.798 270.936 257.417 268.436Z" fill="#81063B"/>
<path fill-rule="evenodd" clip-rule="evenodd" d="M194.075 264.066C193.357 256.68 197.847 249.074 204.998 247.194C207.844 246.443 210.956 246.306 213.978 246.761C216.997 247.215 219.923 248.263 222.343 249.892C226.796 252.761 229.183 258.033 228.989 263.551C228.694 270.517 224.306 276.675 218.276 279.499C215.482 280.9 212.36 281.647 209.152 281.476C202.482 280.919 196.112 276.027 194.688 269.18C194.267 267.657 194.043 265.967 194.075 264.066Z" fill="#EB0065"/>
<path fill-rule="evenodd" clip-rule="evenodd" d="M202.054 259.5C201.95 258.386 201.999 257.296 202.18 256.245C202.363 255.195 202.681 254.187 203.115 253.243C204.376 250.566 206.436 248.045 209.279 247.773C216.053 246.541 225.218 249.44 225.946 257.213C226.051 258.325 226.001 259.417 225.818 260.466C224.908 265.716 220.629 269.919 215.131 270.445C208.533 271.077 202.679 266.176 202.054 259.5Z" fill="#740333"/>
<path fill-rule="evenodd" clip-rule="evenodd" d="M206.001 257.627C205.992 257.215 206.036 256.803 206.135 256.415C206.725 254.138 209.009 253.018 211.181 253.696C213.047 254.277 214.332 256.291 213.924 258.261C213.447 260.561 210.723 262.072 208.548 261.294C207.005 260.742 206.042 259.248 206.001 257.627Z" fill="white"/>
<path fill-rule="evenodd" clip-rule="evenodd" d="M321.946 248.472C321.841 247.381 321.591 246.338 321.218 245.362C320.845 244.383 320.345 243.472 319.743 242.643C318.008 240.3 315.516 238.255 312.67 238.524C305.788 238.599 297.316 243.096 298.044 250.714C298.149 251.806 298.398 252.849 298.772 253.826C300.641 258.712 305.626 261.962 311.125 261.446C317.726 260.827 322.571 255.018 321.946 248.472Z" fill="#740333"/>
<path fill-rule="evenodd" clip-rule="evenodd" d="M310.945 246.894C310.879 246.485 310.758 246.089 310.587 245.726C309.589 243.596 307.137 242.928 305.127 244.011C303.402 244.942 302.51 247.17 303.277 249.031C304.171 251.206 307.128 252.172 309.121 250.991C310.535 250.151 311.205 248.498 310.945 246.894Z" fill="white"/>
<path fill-rule="evenodd" clip-rule="evenodd" d="M205.998 412.184C194.469 405.97 181.401 404.515 169.698 397.539C167.996 396.622 169.804 392.946 170.922 393.38C228.972 414.83 292.305 406.676 343.978 375.516C349.735 372.369 355.348 368.973 360.79 365.336C384.706 349.958 404.536 328.947 415.192 302.067C421.925 284.991 427.057 268.067 434.109 251.5C446.563 277.807 432.881 306.86 419.305 331.322C409.877 348.383 397.615 361.131 383.674 373.031C378.468 377.473 373.047 381.661 367.443 385.565C362.54 388.981 357.493 392.18 352.325 395.142C347.155 398.102 341.865 400.826 336.473 403.298C300.175 421.561 258.749 424.946 219.699 415.049C215.147 414.185 210.567 413.226 205.998 412.184Z" fill="#F43285"/>
<path fill-rule="evenodd" clip-rule="evenodd" d="M263.045 403.868C263.067 404.411 263.218 404.983 263.505 405.604C265.132 409.108 266.93 412.561 268.164 416.23C271.348 425.69 268.525 432.688 262.362 440.058C261.395 441.385 260.469 442.732 259.665 444.112C257.255 448.257 255.953 452.715 258.053 457.93C261.552 466.62 269.959 471.146 278.691 471.479C280.438 471.548 282.197 471.447 283.933 471.177C292.925 470.098 301.158 463.401 303.632 454.403C305.867 446.348 297.375 441.533 292.914 436.057C287.598 429.655 284.691 421.167 285.171 412.762C285.199 411.448 285.31 410.119 285.507 408.771C285.96 405.656 287.871 402.802 287.864 399.593C287.852 395.306 283.055 393.831 279.462 393.541C273.748 393.076 267.995 396.664 264.33 400.858C263.452 401.86 263.005 402.81 263.045 403.868Z" fill="#383075"/>
<path fill-rule="evenodd" clip-rule="evenodd" d="M278.46 471.48C275.009 471.35 271.614 470.573 268.542 469.16C272.01 469.864 275.529 470.068 279.132 469.286C288.963 467.6 300.054 459.409 297.269 449.554C295.472 443.268 289.368 438.584 284.11 433.715C281.871 431.533 279.443 428.498 279.726 424.654C280.18 415.432 284.375 400.947 271.124 401.152C268.588 401.099 265.428 401.183 263 402.28C263.221 401.806 263.543 401.336 263.966 400.856C267.666 396.664 273.472 393.076 279.239 393.541C282.863 393.831 289.706 395.306 289.717 399.593C289.725 402.803 286.794 405.656 286.339 408.771C286.139 410.12 286.028 411.449 285.998 412.762C285.514 421.168 287.447 429.655 292.813 436.056C297.315 441.533 305.885 446.349 303.628 454.404C301.133 463.402 292.825 470.099 283.75 471.178C281.998 471.447 280.221 471.547 278.46 471.48Z" fill="#BE0152"/>
<path fill-rule="evenodd" clip-rule="evenodd" d="M280.08 424.792C279.798 428.6 282.218 431.606 284.45 433.768C289.691 438.591 295.774 443.23 297.566 449.457C300.339 459.219 289.286 467.333 279.488 469.004C275.897 469.779 272.389 469.576 268.933 468.879C264.174 466.702 260.201 462.993 258.06 457.753C255.947 452.587 257.255 448.173 259.681 444.068C260.488 442.7 261.422 441.366 262.392 440.052C268.593 432.751 270.432 425.819 267.228 416.447C265.987 412.814 264.18 408.393 262.544 404.922C262.253 404.306 263.101 403.74 263.081 403.202C263.06 402.656 263.174 402.139 263.409 401.63C265.829 400.542 268.978 400.459 271.507 400.512C284.714 400.311 280.532 415.657 280.08 424.792Z" fill="#EB0065"/>
<mask id="mask2" mask-type="alpha" maskUnits="userSpaceOnUse" x="421" y="216" width="78" height="49">
<path fill-rule="evenodd" clip-rule="evenodd" d="M421.452 216.618H498.621V264.023H421.452V216.618Z" fill="white"/>
</mask>
<g mask="url(#mask2)">
<path fill-rule="evenodd" clip-rule="evenodd" d="M428.497 233.522C429.031 233.426 429.621 233.45 430.286 233.602C434.048 234.458 437.8 235.495 441.636 235.925C451.531 237.039 457.72 232.715 463.543 224.993C464.625 223.747 465.731 222.533 466.899 221.437C470.404 218.142 474.453 215.884 479.983 216.839C489.198 218.43 495.432 225.799 497.663 234.401C498.107 236.121 498.392 237.891 498.511 239.675C499.421 248.841 494.705 258.474 486.493 262.882C479.149 266.849 472.611 259.457 466.314 256.214C458.93 252.32 450.042 251.274 441.971 253.572C440.701 253.885 439.432 254.284 438.164 254.772C435.232 255.897 432.876 258.416 429.752 259.104C425.581 260.023 423.101 255.575 422.034 252.071C420.339 246.495 422.571 240.002 425.85 235.449C426.632 234.361 427.461 233.71 428.497 233.522Z" fill="#383075"/>
</g>
<mask id="mask3" mask-type="alpha" maskUnits="userSpaceOnUse" x="421" y="225" width="78" height="40">
<path fill-rule="evenodd" clip-rule="evenodd" d="M421.453 225.454H498.621V264.027H421.453V225.454Z" fill="white"/>
</mask>
<g mask="url(#mask3)">
<path fill-rule="evenodd" clip-rule="evenodd" d="M498.51 239.871C498.392 238.102 498.106 236.348 497.663 234.641C496.79 231.3 495.299 228.149 493.261 225.454C494.695 228.689 495.655 232.081 495.674 235.77C496.156 245.732 490.586 258.325 480.402 257.727C473.901 257.325 468.026 252.37 462.158 248.285C459.55 246.565 456.074 244.849 452.398 245.951C443.527 248.378 430.348 255.593 427.683 242.609C427.083 240.142 426.483 237.039 427.026 234.433C426.611 234.749 426.226 235.163 425.851 235.681C422.571 240.195 420.339 246.637 422.036 252.17C423.101 255.647 425.581 260.058 429.752 259.148C432.876 258.466 435.232 255.967 438.163 254.849C439.432 254.365 440.701 253.97 441.971 253.658C450.042 251.378 458.929 252.416 466.314 256.279C472.611 259.498 479.148 266.831 486.493 262.894C494.704 258.521 499.423 248.965 498.51 239.871Z" fill="#BE0152"/>
</g>
<path fill-rule="evenodd" clip-rule="evenodd" d="M427.873 243.268C430.54 256.333 443.74 249.073 452.627 246.631C456.307 245.523 459.789 247.25 462.403 248.979C468.281 253.092 474.164 258.077 480.676 258.479C490.875 259.081 496.454 246.413 495.971 236.387C495.954 232.677 494.992 229.263 493.556 226.007C490.381 221.791 485.871 218.686 480.256 217.72C474.718 216.767 470.662 219.021 467.151 222.308C465.982 223.404 464.873 224.616 463.79 225.86C457.957 233.568 451.759 237.882 441.847 236.772C438.005 236.343 434.247 235.308 430.479 234.453C429.813 234.302 429.221 234.277 428.687 234.373C428.147 234.471 427.665 234.697 427.212 235.042C426.669 237.664 427.272 240.786 427.873 243.268Z" fill="#EB0065"/>
<path fill-rule="evenodd" clip-rule="evenodd" d="M468 229.391C468.993 226.261 471.975 224.254 474.795 223.076C478.777 221.729 485.596 222.524 484.958 227.843C484.483 232.665 478.836 233.357 474.851 234.374C472.195 235.051 469.361 232.907 468.291 230.149C468.195 229.907 468.1 229.655 468 229.391Z" fill="#BE0152"/>
<path fill-rule="evenodd" clip-rule="evenodd" d="M292.212 94.6838C289.182 94.2405 286.057 94.571 283.418 95.9826C279.181 98.2517 276.02 103.006 279.469 107.437C285.057 114.614 296.355 115.739 302.56 109.088C306.03 105.368 302.589 99.1772 298.984 97.0579C296.98 95.8796 294.624 95.0377 292.212 94.6838Z" fill="#EB0065"/>
<path fill-rule="evenodd" clip-rule="evenodd" d="M334.718 107.889C329.365 106.467 321.977 108.985 322 114.773C321.929 122.412 331.992 124.915 338.323 122.756C340.163 122.063 341.928 120.585 342.56 118.685C343.63 115.691 342.731 112.088 340.063 110.315C338.589 109.201 336.731 108.342 334.718 107.889Z" fill="#EB0065"/>
<path fill-rule="evenodd" clip-rule="evenodd" d="M214.724 161.502C209.218 161.383 202.742 165.592 204.212 171.24C206.06 178.718 216.364 178.778 221.916 175.172C223.512 174.056 224.839 172.196 224.971 170.19C225.252 167.012 223.484 163.707 220.475 162.607C218.775 161.866 216.775 161.469 214.724 161.502Z" fill="#EB0065"/>
<path fill-rule="evenodd" clip-rule="evenodd" d="M308.54 121.674C304.39 120.762 299.746 123.535 299.075 127.778C298.427 132.28 302.085 136.131 306.766 136.491C310.877 136.642 315.084 134.954 316.617 131.156C317.691 128.184 316.493 124.371 313.203 123.395C311.899 122.509 310.28 121.895 308.54 121.674Z" fill="#EB0065"/>
<path fill-rule="evenodd" clip-rule="evenodd" d="M194.687 192.568C190.415 192.651 186.603 196.433 187.033 200.713C187.554 205.24 192.101 208.128 196.746 207.383C200.788 206.57 204.45 203.946 204.975 199.896C205.259 196.756 203.118 193.332 199.665 193.153C198.171 192.596 196.439 192.376 194.687 192.568Z" fill="#EB0065"/>
<path fill-rule="evenodd" clip-rule="evenodd" d="M204.723 347.502C199.216 347.383 192.742 351.592 194.212 357.24C196.058 364.718 206.363 364.778 211.916 361.172C213.514 360.056 214.839 358.196 214.971 356.19C215.252 353.012 213.483 349.707 210.474 348.607C208.775 347.866 206.774 347.469 204.723 347.502Z" fill="#EB0065"/>
<path fill-rule="evenodd" clip-rule="evenodd" d="M241.687 352.568C237.415 352.653 233.603 356.432 234.033 360.713C234.554 365.239 239.101 368.127 243.746 367.384C247.79 366.568 251.45 363.947 251.975 359.896C252.259 356.758 250.118 353.332 246.665 353.153C245.171 352.596 243.439 352.376 241.687 352.568Z" fill="#EB0065"/>
<path fill-rule="evenodd" clip-rule="evenodd" d="M382.54 281.674C378.39 280.762 373.746 283.535 373.075 287.779C372.427 292.281 376.085 296.129 380.766 296.491C384.877 296.64 389.084 294.952 390.617 291.155C391.691 288.183 390.493 284.371 387.203 283.397C385.899 282.509 384.28 281.895 382.54 281.674Z" fill="#EB0065"/>
<path fill-rule="evenodd" clip-rule="evenodd" d="M366.36 303.616C363.594 303.008 360.498 304.858 360.05 307.686C359.617 310.687 362.056 313.253 365.175 313.494C367.919 313.594 370.722 312.468 371.745 309.936C372.461 307.955 371.662 305.414 369.467 304.763C368.6 304.173 367.52 303.764 366.36 303.616Z" fill="#EB0065"/>
<path fill-rule="evenodd" clip-rule="evenodd" d="M139.956 336.798C140.455 331.312 136.693 324.548 130.943 325.612C123.343 326.922 122.572 337.201 125.798 343C126.803 344.674 128.573 346.129 130.568 346.404C133.724 346.91 137.15 345.384 138.457 342.458C139.313 340.815 139.847 338.847 139.956 336.798Z" fill="#EB0065"/>
<path fill-rule="evenodd" clip-rule="evenodd" d="M120.99 313.713C121.192 309.455 117.669 305.387 113.36 305.502C108.799 305.69 105.607 310.002 106.039 314.681C106.584 318.763 108.96 322.598 112.974 323.417C116.093 323.929 119.661 322.05 120.073 318.626C120.729 317.179 121.064 315.471 120.99 313.713Z" fill="#EB0065"/>
<path fill-rule="evenodd" clip-rule="evenodd" d="M380.796 357.846C381.139 358.264 381.602 358.624 382.204 358.941C385.6 360.725 389.105 362.366 392.286 364.518C400.492 370.07 402.413 377.315 401.883 386.883C401.905 388.518 401.968 390.145 402.15 391.725C402.697 396.462 404.319 400.775 409.116 403.627C417.114 408.378 426.55 406.859 433.742 401.829C435.18 400.822 436.529 399.677 437.757 398.412C444.312 392.106 446.902 381.815 443.503 373.201C440.477 365.474 430.801 366.815 423.954 365.19C415.871 363.35 408.469 358.4 403.828 351.463C403.069 350.408 402.362 349.289 401.712 348.104C400.211 345.365 400.037 341.948 398.114 339.416C395.541 336.032 390.818 337.775 387.769 339.723C382.917 342.822 380.452 349.149 380.025 354.687C379.921 356.012 380.131 357.035 380.796 357.846Z" fill="#383075"/>
<path fill-rule="evenodd" clip-rule="evenodd" d="M437.758 398.897C436.53 400.172 435.181 401.327 433.743 402.342C430.928 404.326 427.769 405.766 424.486 406.5C427.659 404.959 430.571 402.994 432.966 400.186C439.755 392.887 443.656 379.641 435.558 373.472C430.376 369.547 422.731 369.511 415.65 368.815C412.566 368.432 408.827 367.482 406.755 364.248C401.601 356.622 396.271 342.535 385.88 350.723C383.836 352.218 381.379 354.198 380.109 356.542C380.001 356.033 379.975 355.464 380.024 354.823C380.452 349.241 382.917 342.864 387.768 339.742C390.818 337.779 395.542 336.02 398.113 339.43C400.038 341.984 400.212 345.427 401.713 348.188C402.361 349.382 403.068 350.51 403.829 351.575C408.469 358.568 415.87 363.556 423.955 365.41C430.801 367.048 440.479 365.697 443.503 373.485C446.902 382.17 444.314 392.541 437.758 398.897Z" fill="#BE0152"/>
<path fill-rule="evenodd" clip-rule="evenodd" d="M385.772 350.944C396.165 342.868 401.495 356.763 406.65 364.285C408.723 367.475 412.462 368.412 415.547 368.789C422.629 369.476 430.273 369.512 435.458 373.381C443.557 379.466 439.655 392.533 432.866 399.732C430.47 402.5 427.558 404.441 424.383 405.959C419.28 407.084 413.881 406.52 409.013 403.647C404.213 400.811 402.591 396.523 402.043 391.813C401.861 390.242 401.799 388.624 401.776 386.999C402.308 377.486 400.385 370.283 392.179 364.764C388.996 362.624 385.492 360.992 382.096 359.218C381.491 358.903 381.029 358.545 380.686 358.13C380.341 357.71 380.121 357.231 380 356.684C381.27 354.372 383.728 352.419 385.772 350.944Z" fill="#EB0065"/>
<path fill-rule="evenodd" clip-rule="evenodd" d="M407.618 386.822C406.293 389.953 407.3 393.534 408.739 396.352C410.984 400.085 416.92 404.027 420.002 399.409C422.877 395.294 418.873 390.962 416.404 387.489C414.757 385.176 411.066 384.964 408.36 386.42C408.12 386.546 407.874 386.68 407.618 386.822Z" fill="#BE0152"/>
<path fill-rule="evenodd" clip-rule="evenodd" d="M266.712 442.5C263.898 444.128 262.593 447.437 262.057 450.41C261.604 454.543 263.833 460.956 268.842 459.204C273.405 457.715 272.866 452.114 272.998 448.049C273.085 445.341 270.401 443.06 267.507 442.619C267.253 442.578 266.987 442.539 266.712 442.5Z" fill="#BE0152"/>
</svg>
