<svg width="38" height="38" viewBox="0 0 38 38" fill="none" xmlns="http://www.w3.org/2000/svg">
<path fill-rule="evenodd" clip-rule="evenodd" d="M38 19C38 29.4934 29.4934 38 19 38C8.50659 38 0 29.4934 0 19C0 8.50659 8.50659 0 19 0C29.4934 0 38 8.50659 38 19ZM37 19C37 28.9411 28.9411 37 19 37C9.05887 37 1 28.9411 1 19C1 9.05887 9.05887 1 19 1C28.9411 1 37 9.05887 37 19Z" fill="#6468A1"/>
<mask id="mask0" mask-type="alpha" maskUnits="userSpaceOnUse" x="0" y="0" width="38" height="38">
<path fill-rule="evenodd" clip-rule="evenodd" d="M38 19C38 29.4934 29.4934 38 19 38C8.50659 38 0 29.4934 0 19C0 8.50659 8.50659 0 19 0C29.4934 0 38 8.50659 38 19ZM37 19C37 28.9411 28.9411 37 19 37C9.05887 37 1 28.9411 1 19C1 9.05887 9.05887 1 19 1C28.9411 1 37 9.05887 37 19Z" fill="white"/>
</mask>
<g mask="url(#mask0)">
</g>
<path fill-rule="evenodd" clip-rule="evenodd" d="M24 10.5C24 10.224 23.775 10 23.5 10H21C18.238 10 16 12.015 16 14.5V17.2H13.5C13.224 17.2 13 17.424 13 17.7V20.3C13 20.576 13.224 20.8 13.5 20.8H16V27.5C16 27.776 16.224 28 16.5 28H19.5C19.775 28 20 27.776 20 27.5V20.8H22.619C22.844 20.8 23.041 20.65 23.102 20.434L23.823 17.834C23.912 17.516 23.672 17.2 23.342 17.2H20V14.5C20 14.003 20.447 13.6 21 13.6H23.5C23.775 13.6 24 13.376 24 13.1V10.5Z" fill="#EB0065"/>
<mask id="mask1" mask-type="alpha" maskUnits="userSpaceOnUse" x="13" y="10" width="11" height="18">
<path fill-rule="evenodd" clip-rule="evenodd" d="M24 10.5C24 10.224 23.775 10 23.5 10H21C18.238 10 16 12.015 16 14.5V17.2H13.5C13.224 17.2 13 17.424 13 17.7V20.3C13 20.576 13.224 20.8 13.5 20.8H16V27.5C16 27.776 16.224 28 16.5 28H19.5C19.775 28 20 27.776 20 27.5V20.8H22.619C22.844 20.8 23.041 20.65 23.102 20.434L23.823 17.834C23.912 17.516 23.672 17.2 23.342 17.2H20V14.5C20 14.003 20.447 13.6 21 13.6H23.5C23.775 13.6 24 13.376 24 13.1V10.5Z" fill="white"/>
</mask>
<g mask="url(#mask1)">
</g>
</svg>
