<svg width="38" height="38" viewBox="0 0 38 38" fill="none" xmlns="http://www.w3.org/2000/svg">
<path fill-rule="evenodd" clip-rule="evenodd" d="M38 19C38 29.4934 29.4934 38 19 38C8.50659 38 0 29.4934 0 19C0 8.50659 8.50659 0 19 0C29.4934 0 38 8.50659 38 19ZM37 19C37 28.9411 28.9411 37 19 37C9.05887 37 1 28.9411 1 19C1 9.05887 9.05887 1 19 1C28.9411 1 37 9.05887 37 19Z" fill="#6468A1"/>
<mask id="mask0" mask-type="alpha" maskUnits="userSpaceOnUse" x="0" y="0" width="38" height="38">
<path fill-rule="evenodd" clip-rule="evenodd" d="M38 19C38 29.4934 29.4934 38 19 38C8.50659 38 0 29.4934 0 19C0 8.50659 8.50659 0 19 0C29.4934 0 38 8.50659 38 19ZM37 19C37 28.9411 28.9411 37 19 37C9.05887 37 1 28.9411 1 19C1 9.05887 9.05887 1 19 1C28.9411 1 37 9.05887 37 19Z" fill="white"/>
</mask>
<g mask="url(#mask0)">
</g>
<path fill-rule="evenodd" clip-rule="evenodd" d="M19.3057 25.9997C20.5017 25.9975 21.3738 25.9819 21.9219 25.9531C22.5156 25.9218 23.0312 25.8333 23.4687 25.6875C23.9896 25.5 24.4427 25.2135 24.8281 24.8281C25.2135 24.4427 25.5 23.9896 25.6875 23.4687C25.8333 23.0312 25.9218 22.5156 25.9531 21.9219C25.9843 21.3281 26 20.3541 26 19L25.9992 18.4024C25.9965 17.3569 25.9863 16.5873 25.9687 16.0937C25.9271 15.4896 25.8333 14.9687 25.6875 14.5312C25.5 14.0104 25.2135 13.5573 24.8281 13.1719C24.4427 12.7865 23.9896 12.5 23.4687 12.3125C23.0312 12.1667 22.5156 12.0781 21.9219 12.0469C21.3281 12.0156 20.3541 12 19 12L18.6942 12.0003C17.4982 12.0025 16.6262 12.018 16.0781 12.0469C15.4844 12.0781 14.9687 12.1667 14.5312 12.3125C14.0104 12.5 13.5573 12.7865 13.1719 13.1719C12.7865 13.5573 12.5 14.0104 12.3125 14.5312C12.1667 14.9687 12.0781 15.4844 12.0469 16.0781C12.0156 16.6719 12 17.6458 12 19L12.0003 19.3057C12.0025 20.5017 12.018 21.3738 12.0469 21.9219C12.0781 22.5156 12.1667 23.0312 12.3125 23.4687C12.5 23.9896 12.7865 24.4427 13.1719 24.8281C13.5573 25.2135 14.0104 25.4896 14.5312 25.6562C14.9687 25.8229 15.4844 25.9218 16.0781 25.9531C16.6719 25.9843 17.6458 26 19 26L19.3057 25.9997ZM19.5 24.75H18.5C17.6667 24.75 17.0208 24.7396 16.5625 24.7187C15.7917 24.6771 15.2292 24.5937 14.875 24.4687C14.25 24.2187 13.8021 23.7708 13.5312 23.125C13.4062 22.7708 13.3229 22.2083 13.2812 21.4375C13.2604 20.9791 13.25 20.3333 13.25 19.5V18.5C13.25 17.6667 13.2604 17.0208 13.2812 16.5625C13.3229 15.7708 13.4062 15.2083 13.5312 14.875C13.7812 14.2292 14.2292 13.7812 14.875 13.5312C15.2292 13.4062 15.7917 13.3229 16.5625 13.2812C17.0208 13.2604 17.6667 13.25 18.5 13.25L19.8037 13.2505C20.4918 13.2528 21.0364 13.263 21.4375 13.2812C22.2291 13.3229 22.7916 13.4062 23.125 13.5312C23.7708 13.7812 24.2187 14.2292 24.4687 14.875C24.5937 15.2083 24.6771 15.7708 24.7187 16.5625C24.7396 17 24.75 17.6458 24.75 18.5L24.7495 19.8037C24.7472 20.4918 24.7369 21.0364 24.7187 21.4375C24.6771 22.2083 24.5937 22.7708 24.4687 23.125C24.2187 23.75 23.7708 24.1979 23.125 24.4687C22.7916 24.5937 22.2291 24.6771 21.4375 24.7187C21 24.7396 20.3541 24.75 19.5 24.75ZM22.75 16.0937C22.9791 16.0937 23.1718 16.0104 23.3281 15.8437C23.4843 15.6771 23.5729 15.4792 23.5937 15.25C23.5937 15.0208 23.5104 14.8229 23.3437 14.6562C23.1771 14.4896 22.9791 14.4062 22.75 14.4062C22.5208 14.4062 22.3229 14.4896 22.1562 14.6562C21.9896 14.8229 21.9062 15.0208 21.9062 15.25C21.9062 15.4792 21.9896 15.6771 22.1562 15.8437C22.3229 16.0104 22.5208 16.0937 22.75 16.0937ZM19 22.5937C19.6458 22.5937 20.2448 22.4323 20.7969 22.1094C21.3489 21.7864 21.7864 21.3489 22.1094 20.7969C22.4323 20.2448 22.5937 19.6458 22.5937 19C22.5937 18.3542 22.4323 17.7552 22.1094 17.2031C21.7864 16.651 21.3489 16.2135 20.7969 15.8906C20.2448 15.5677 19.6458 15.4062 19 15.4062C18.3542 15.4062 17.7552 15.5677 17.2031 15.8906C16.651 16.2135 16.2135 16.651 15.8906 17.2031C15.5677 17.7552 15.4062 18.3542 15.4062 19C15.4062 19.6458 15.5677 20.2448 15.8906 20.7969C16.2135 21.3489 16.651 21.7864 17.2031 22.1094C17.7552 22.4323 18.3542 22.5937 19 22.5937ZM19 21.3437C18.3542 21.3437 17.8021 21.1146 17.3437 20.6562C16.8854 20.1979 16.6562 19.6458 16.6562 19C16.6562 18.3542 16.8854 17.8021 17.3437 17.3437C17.8021 16.8854 18.3542 16.6562 19 16.6562C19.6458 16.6562 20.1979 16.8854 20.6562 17.3437C21.1146 17.8021 21.3437 18.3542 21.3437 19C21.3437 19.6458 21.1146 20.1979 20.6562 20.6562C20.1979 21.1146 19.6458 21.3437 19 21.3437Z" fill="#EB0065"/>
</svg>
