<svg width="38" height="38" viewBox="0 0 38 38" fill="none" xmlns="http://www.w3.org/2000/svg">
<path fill-rule="evenodd" clip-rule="evenodd" d="M38 19C38 29.4934 29.4934 38 19 38C8.50659 38 0 29.4934 0 19C0 8.50659 8.50659 0 19 0C29.4934 0 38 8.50659 38 19ZM37 19C37 28.9411 28.9411 37 19 37C9.05887 37 1 28.9411 1 19C1 9.05887 9.05887 1 19 1C28.9411 1 37 9.05887 37 19Z" fill="#6468A1"/>
<path fill-rule="evenodd" clip-rule="evenodd" d="M22.3333 24.9688L19.5 25L16.6667 24.9688C14.674 24.9062 13.4078 24.8021 12.8681 24.6562C12.4945 24.5521 12.1728 24.3646 11.9029 24.0938C11.6331 23.8229 11.4463 23.5104 11.3425 23.1562C11.1972 22.5938 11.0934 21.7292 11.0311 20.5625L11 19C11 18.5417 11.0104 18.0208 11.0311 17.4375C11.0934 16.2917 11.1972 15.4375 11.3425 14.875C11.4463 14.5 11.6331 14.1771 11.9029 13.9062C12.1728 13.6354 12.4945 13.4479 12.8681 13.3438C13.4078 13.1979 14.674 13.0938 16.6667 13.0312L19.5 13L22.3333 13.0312C24.326 13.0938 25.5922 13.1979 26.1319 13.3438C26.5055 13.4479 26.8272 13.6354 27.0971 13.9062C27.3669 14.1771 27.5537 14.5 27.6575 14.875C27.8028 15.4375 27.9066 16.2917 27.9689 17.4375L28 19L27.9689 20.5625C27.9066 21.7292 27.8028 22.5938 27.6575 23.1562C27.5537 23.5104 27.3669 23.8229 27.0971 24.0938C26.8272 24.3646 26.5055 24.5521 26.1319 24.6562C25.5922 24.8021 24.326 24.9062 22.3333 24.9688ZM17.7564 16.4688V21.5625L22.2088 19L17.7564 16.4688Z" fill="#EB0065"/>
</svg>
